<svg width="236" height="236" viewBox="0 0 236 236" fill="none" xmlns="http://www.w3.org/2000/svg">
<g opacity="0.2">
<path d="M117.581 0C52.5807 0 0 52.5807 0 117.581C0 182.419 52.5807 235.161 117.581 235.161C182.419 235.161 235.161 182.581 235.161 117.581C235 52.5807 182.419 0 117.581 0ZM117.581 227.581C56.7742 227.581 7.58065 178.387 7.58065 117.581C7.58065 56.7742 56.7742 7.58065 117.581 7.58065C178.387 7.58065 227.581 56.7742 227.581 117.581C227.581 178.226 178.226 227.581 117.581 227.581Z" fill="white"/>
<path d="M117.582 25.3223C66.7752 25.3223 25.4849 66.6126 25.4849 117.419C25.4849 168.225 66.7752 209.516 117.582 209.516C168.388 209.516 209.678 168.387 209.678 117.58C209.678 66.6126 168.388 25.3223 117.582 25.3223ZM117.582 195.484C74.5171 195.484 39.5171 160.484 39.5171 117.419C39.5171 74.3545 74.5171 39.3545 117.582 39.3545C160.646 39.3545 195.646 74.3545 195.646 117.419C195.646 160.484 160.646 195.484 117.582 195.484Z" fill="white"/>
</g>
</svg>
