<svg width="144" height="106" viewBox="0 0 144 106" fill="none" xmlns="http://www.w3.org/2000/svg">
<g opacity="0.8" clip-path="url(#clip0_2282_629)">
<path d="M4.75085 31.5769C4.75087 32.7414 3.87656 33.6148 2.7108 33.6148C1.54504 33.6148 0.670705 32.7415 0.670687 31.577C0.670668 30.4124 1.54497 29.539 2.71074 29.539C3.8765 29.539 4.75083 30.5094 4.75085 31.5769Z" fill="#FFCF2D"/>
<path d="M22.14 31.5769C22.14 32.7414 21.2657 33.6148 20.1 33.6148C18.9342 33.6148 18.0599 32.7415 18.0598 31.577C18.0598 30.4124 18.9341 29.539 20.0999 29.539C21.1685 29.539 22.14 30.5094 22.14 31.5769Z" fill="#FFCF2D"/>
<path d="M39.4322 31.5749C39.4323 32.7394 38.558 33.6128 37.3922 33.6129C36.2264 33.6129 35.3521 32.7395 35.3521 31.575C35.3521 30.4105 36.2264 29.5371 37.3921 29.5371C38.5579 29.5371 39.4322 30.5075 39.4322 31.5749Z" fill="#FFCF2D"/>
<path d="M56.8214 31.5749C56.8214 32.7394 55.9471 33.6128 54.7814 33.6129C53.6156 33.6129 52.7413 32.7395 52.7412 31.575C52.7412 30.4105 53.6155 29.5371 54.7813 29.5371C55.9471 29.5371 56.8214 30.5075 56.8214 31.5749Z" fill="#FFCF2D"/>
<path d="M74.2108 31.5749C74.2108 32.7394 73.3365 33.6128 72.1708 33.6129C71.005 33.6129 70.1307 32.7395 70.1306 31.575C70.1306 30.4105 71.0049 29.5371 72.1707 29.5371C73.2393 29.5371 74.2108 30.5075 74.2108 31.5749Z" fill="#FFCF2D"/>
<path d="M91.6 31.5749C91.6 32.7394 90.7257 33.6128 89.5599 33.6129C88.3942 33.6129 87.5198 32.7395 87.5198 31.575C87.5198 30.4105 88.3941 29.5371 89.5599 29.5371C90.7256 29.5371 91.5999 30.5075 91.6 31.5749Z" fill="#FFCF2D"/>
<path d="M108.892 31.5749C108.892 32.7394 108.018 33.6128 106.852 33.6129C105.686 33.6129 104.812 32.7395 104.812 31.575C104.812 30.4105 105.686 29.5371 106.852 29.5371C108.018 29.5371 108.892 30.5075 108.892 31.5749Z" fill="#FFCF2D"/>
<path d="M126.281 31.5749C126.281 32.7394 125.407 33.6128 124.241 33.6129C123.076 33.6129 122.201 32.7395 122.201 31.575C122.201 30.4105 123.075 29.5371 124.241 29.5371C125.407 29.5371 126.281 30.5075 126.281 31.5749Z" fill="#FFCF2D"/>
<path d="M143.671 31.5749C143.671 32.7394 142.796 33.6128 141.631 33.6129C140.465 33.6129 139.591 32.7395 139.591 31.575C139.591 30.4105 140.465 29.5371 141.631 29.5371C142.699 29.5371 143.671 30.5075 143.671 31.5749Z" fill="#FFCF2D"/>
<path d="M4.75109 46.0359C4.75111 47.2004 3.87681 48.0738 2.71105 48.0738C1.54528 48.0738 0.67095 47.2005 0.670931 46.0359C0.670912 44.8714 1.54522 43.998 2.71098 43.998C3.87674 43.998 4.75108 44.8714 4.75109 46.0359Z" fill="#FFCF2D"/>
<path d="M22.1403 46.0359C22.1403 47.2004 21.266 48.0738 20.1002 48.0738C18.9344 48.0738 18.0601 47.2005 18.0601 46.0359C18.0601 44.8714 18.9344 43.998 20.1001 43.998C21.1688 43.998 22.1402 44.8714 22.1403 46.0359Z" fill="#FFCF2D"/>
<path d="M39.4325 46.0339C39.4325 47.1984 38.5582 48.0718 37.3924 48.0718C36.2267 48.0719 35.3523 47.1985 35.3523 46.034C35.3523 44.8695 36.2266 43.9961 37.3924 43.9961C38.5581 43.996 39.4325 44.8694 39.4325 46.0339Z" fill="#FFCF2D"/>
<path d="M56.8216 46.0339C56.8217 47.1984 55.9474 48.0718 54.7816 48.0718C53.6158 48.0719 52.7415 47.1985 52.7415 46.034C52.7415 44.8695 53.6158 43.9961 54.7815 43.9961C55.9473 43.996 56.8216 44.8694 56.8216 46.0339Z" fill="#FFCF2D"/>
<path d="M74.211 46.0339C74.2111 47.1984 73.3368 48.0718 72.171 48.0718C71.0052 48.0719 70.1309 47.1985 70.1309 46.034C70.1309 44.8695 71.0052 43.9961 72.1709 43.9961C73.2395 43.996 74.211 44.8694 74.211 46.0339Z" fill="#FFCF2D"/>
<path d="M91.6002 46.0339C91.6002 47.1984 90.7259 48.0718 89.5602 48.0718C88.3944 48.0719 87.5201 47.1985 87.5201 46.034C87.52 44.8695 88.3943 43.9961 89.5601 43.9961C90.7259 43.996 91.6002 44.8694 91.6002 46.0339Z" fill="#FFCF2D"/>
<path d="M108.892 46.0339C108.892 47.1984 108.018 48.0718 106.852 48.0718C105.687 48.0719 104.812 47.1985 104.812 46.034C104.812 44.8695 105.687 43.9961 106.852 43.9961C108.018 43.996 108.892 44.8694 108.892 46.0339Z" fill="#FFCF2D"/>
<path d="M126.282 46.0339C126.282 47.1984 125.407 48.0718 124.242 48.0718C123.076 48.0719 122.201 47.1985 122.201 46.034C122.201 44.8695 123.076 43.9961 124.241 43.9961C125.407 43.996 126.282 44.8694 126.282 46.0339Z" fill="#FFCF2D"/>
<path d="M143.671 46.0339C143.671 47.1984 142.797 48.0718 141.631 48.0718C140.465 48.0719 139.591 47.1985 139.591 46.034C139.591 44.8695 140.465 43.9961 141.631 43.9961C142.7 43.996 143.671 44.8694 143.671 46.0339Z" fill="#FFCF2D"/>
<path d="M4.75036 2.75462C4.75038 3.91913 3.87607 4.79253 2.71031 4.79255C1.54455 4.79257 0.670217 3.9192 0.670199 2.75469C0.67018 1.59018 1.54449 0.716783 2.71025 0.716764C3.87601 0.716746 4.75034 1.59011 4.75036 2.75462Z" fill="#FFCF2D"/>
<path d="M22.1395 2.75462C22.1395 3.91913 21.2652 4.79253 20.0995 4.79255C18.9337 4.79257 18.0594 3.9192 18.0594 2.75469C18.0593 1.59018 18.9336 0.716783 20.0994 0.716764C21.168 0.716747 22.1395 1.59011 22.1395 2.75462Z" fill="#FFCF2D"/>
<path d="M39.4318 2.75462C39.4318 3.91913 38.5575 4.79253 37.3917 4.79255C36.2259 4.79257 35.3516 3.9192 35.3516 2.75469C35.3516 1.59018 36.323 0.716781 37.3916 0.716764C38.5574 0.716746 39.4317 1.59011 39.4318 2.75462Z" fill="#FFCF2D"/>
<path d="M56.8212 2.75462C56.8212 3.91913 55.9469 4.79253 54.7811 4.79255C53.6154 4.79257 52.741 3.9192 52.741 2.75469C52.741 1.59018 53.7124 0.716781 54.781 0.716764C55.8497 0.716747 56.8211 1.59011 56.8212 2.75462Z" fill="#FFCF2D"/>
<path d="M74.2103 2.75267C74.2103 3.91718 73.336 4.79058 72.1703 4.7906C71.0045 4.79061 70.1302 3.91725 70.1302 2.75274C70.1301 1.58823 71.0044 0.71483 72.1702 0.714811C73.2388 0.714794 74.2103 1.58816 74.2103 2.75267Z" fill="#FFCF2D"/>
<path d="M91.5995 2.75267C91.5995 3.91718 90.7252 4.79058 89.5594 4.7906C88.3937 4.79061 87.5193 3.91725 87.5193 2.75274C87.5193 1.58823 88.3936 0.71483 89.5594 0.714811C90.7251 0.714793 91.5995 1.58816 91.5995 2.75267Z" fill="#FFCF2D"/>
<path d="M108.892 2.75267C108.892 3.91718 108.017 4.79058 106.852 4.7906C105.686 4.79061 104.812 3.91725 104.812 2.75274C104.812 1.58823 105.686 0.71483 106.852 0.714811C108.017 0.714793 108.892 1.58816 108.892 2.75267Z" fill="#FFCF2D"/>
<path d="M126.281 2.75267C126.281 3.91718 125.407 4.79058 124.241 4.7906C123.075 4.79061 122.201 3.91725 122.201 2.75274C122.201 1.58823 123.075 0.71483 124.241 0.714811C125.407 0.714793 126.281 1.58816 126.281 2.75267Z" fill="#FFCF2D"/>
<path d="M143.67 2.75267C143.67 3.91718 142.796 4.79058 141.63 4.7906C140.464 4.79061 139.59 3.91725 139.59 2.75274C139.59 1.58823 140.464 0.71483 141.63 0.714811C142.699 0.714794 143.67 1.58816 143.67 2.75267Z" fill="#FFCF2D"/>
<path d="M4.75061 17.2136C4.75062 18.3781 3.87632 19.2515 2.71056 19.2515C1.5448 19.2516 0.67046 18.2811 0.670443 17.2137C0.670424 16.0492 1.54473 15.1758 2.71049 15.1757C3.87625 15.1757 4.75059 16.0491 4.75061 17.2136Z" fill="#FFCF2D"/>
<path d="M22.1398 17.2136C22.1398 18.3781 21.2655 19.2515 20.0997 19.2515C18.934 19.2516 18.0596 18.3782 18.0596 17.2137C18.0596 16.0492 18.9339 15.1758 20.0997 15.1757C21.1683 15.1757 22.1397 16.0491 22.1398 17.2136Z" fill="#FFCF2D"/>
<path d="M39.432 17.2136C39.432 18.3781 38.5577 19.2515 37.392 19.2515C36.2262 19.2516 35.3519 18.3782 35.3518 17.2137C35.3518 16.0492 36.2261 15.1758 37.3919 15.1757C38.5576 15.1757 39.432 16.0491 39.432 17.2136Z" fill="#FFCF2D"/>
<path d="M56.8212 17.2136C56.8212 18.3781 55.9469 19.2515 54.7811 19.2515C53.6154 19.2516 52.741 18.3782 52.741 17.2137C52.741 16.0492 53.6153 15.1758 54.781 15.1757C55.9468 15.1757 56.8211 16.0491 56.8212 17.2136Z" fill="#FFCF2D"/>
<path d="M74.2106 17.2136C74.2106 18.3781 73.3363 19.2515 72.1705 19.2515C71.0048 19.2516 70.1304 18.3782 70.1304 17.2137C70.1304 16.0492 71.0047 15.1758 72.1704 15.1757C73.2391 15.1757 74.2105 16.0491 74.2106 17.2136Z" fill="#FFCF2D"/>
<path d="M91.5997 17.2117C91.5997 18.3762 90.7254 19.2496 89.5597 19.2496C88.3939 19.2496 87.5196 18.3762 87.5196 17.2117C87.5195 16.0472 88.3938 15.1738 89.5596 15.1738C90.7254 15.1738 91.5997 16.0471 91.5997 17.2117Z" fill="#FFCF2D"/>
<path d="M108.892 17.2117C108.892 18.3762 108.018 19.2496 106.852 19.2496C105.686 19.2496 104.812 18.3762 104.812 17.2117C104.812 16.0472 105.686 15.1738 106.852 15.1738C108.018 15.1738 108.892 16.0471 108.892 17.2117Z" fill="#FFCF2D"/>
<path d="M126.281 17.2117C126.281 18.3762 125.407 19.2496 124.241 19.2496C123.076 19.2496 122.201 18.3762 122.201 17.2117C122.201 16.0472 123.075 15.1738 124.241 15.1738C125.407 15.1738 126.281 16.0471 126.281 17.2117Z" fill="#FFCF2D"/>
<path d="M143.671 17.2117C143.671 18.3762 142.796 19.2496 141.63 19.2496C140.465 19.2496 139.59 18.3762 139.59 17.2117C139.59 16.0472 140.465 15.1738 141.63 15.1738C142.699 15.1738 143.671 16.0471 143.671 17.2117Z" fill="#FFCF2D"/>
<path d="M4.75134 60.3972C4.75136 61.5617 3.87705 62.4351 2.71129 62.4351C1.54553 62.4351 0.671194 61.5618 0.671175 60.3973C0.671157 59.2328 1.54546 58.3594 2.71122 58.3593C3.87699 58.3593 4.75132 59.3297 4.75134 60.3972Z" fill="#FFCF2D"/>
<path d="M22.1405 60.3972C22.1405 61.5617 21.2662 62.4351 20.1004 62.4351C18.9347 62.4351 18.0604 61.5618 18.0603 60.3973C18.0603 59.2328 18.9346 58.3594 20.1004 58.3593C21.169 58.3593 22.1405 59.3297 22.1405 60.3972Z" fill="#FFCF2D"/>
<path d="M39.4327 60.3972C39.4328 61.5617 38.5584 62.4351 37.3927 62.4351C36.2269 62.4351 35.3526 61.5618 35.3526 60.3973C35.3526 59.2328 36.2269 58.3594 37.3926 58.3593C38.5584 58.3593 39.4327 59.3297 39.4327 60.3972Z" fill="#FFCF2D"/>
<path d="M56.8219 60.3972C56.8219 61.5617 55.9476 62.4351 54.7818 62.4351C53.6161 62.4351 52.7418 61.5618 52.7417 60.3973C52.7417 59.2328 53.616 58.3594 54.7818 58.3593C55.9475 58.3593 56.8219 59.3297 56.8219 60.3972Z" fill="#FFCF2D"/>
<path d="M74.2113 60.3972C74.2113 61.5617 73.337 62.4351 72.1712 62.4351C71.0055 62.4351 70.1312 61.5618 70.1311 60.3973C70.1311 59.2328 71.0054 58.3594 72.1712 58.3593C73.2398 58.3593 74.2113 59.3297 74.2113 60.3972Z" fill="#FFCF2D"/>
<path d="M91.6005 60.3972C91.6005 61.5617 90.7262 62.4351 89.5604 62.4351C88.3946 62.4351 87.5203 61.5618 87.5203 60.3973C87.5203 59.2328 88.3946 58.3594 89.5603 58.3593C90.7261 58.3593 91.6004 59.3297 91.6005 60.3972Z" fill="#FFCF2D"/>
<path d="M108.893 60.3972C108.893 61.5617 108.018 62.4351 106.853 62.4351C105.687 62.4351 104.813 61.5618 104.813 60.3973C104.813 59.2328 105.687 58.3594 106.853 58.3593C108.018 58.3593 108.893 59.3297 108.893 60.3972Z" fill="#FFCF2D"/>
<path d="M126.282 60.3952C126.282 61.5598 125.408 62.4332 124.242 62.4332C123.076 62.4332 122.202 61.5598 122.202 60.3953C122.202 59.2308 123.076 58.3574 124.242 58.3574C125.407 58.3574 126.282 59.3278 126.282 60.3952Z" fill="#FFCF2D"/>
<path d="M143.671 60.3952C143.671 61.5598 142.797 62.4332 141.631 62.4332C140.465 62.4332 139.591 61.5598 139.591 60.3953C139.591 59.2308 140.465 58.3574 141.631 58.3574C142.7 58.3574 143.671 59.3278 143.671 60.3952Z" fill="#FFCF2D"/>
<path d="M4.75158 74.8562C4.7516 76.0207 3.87729 76.8941 2.71153 76.8941C1.54577 76.8941 0.671438 76.0208 0.671419 74.8563C0.671401 73.6917 1.54571 72.8183 2.71147 72.8183C3.87723 72.8183 4.75156 73.6917 4.75158 74.8562Z" fill="#FFCF2D"/>
<path d="M22.1407 74.8562C22.1408 76.0207 21.2665 76.8941 20.1007 76.8941C18.9349 76.8941 18.0606 76.0208 18.0606 74.8563C18.0606 73.6917 18.9349 72.8183 20.1006 72.8183C21.1692 72.8183 22.1407 73.6917 22.1407 74.8562Z" fill="#FFCF2D"/>
<path d="M39.433 74.8562C39.433 76.0207 38.5587 76.8941 37.3929 76.8941C36.2272 76.8941 35.3528 76.0208 35.3528 74.8563C35.3528 73.6917 36.2271 72.8183 37.3929 72.8183C38.5586 72.8183 39.433 73.6917 39.433 74.8562Z" fill="#FFCF2D"/>
<path d="M54.7821 76.8941C55.9088 76.8941 56.8222 75.9817 56.8221 74.8562C56.8221 73.7307 55.9087 72.8183 54.782 72.8183C53.6553 72.8183 52.742 73.7308 52.742 74.8563C52.742 75.9817 53.6554 76.8941 54.7821 76.8941Z" fill="#FFCF2D"/>
<path d="M74.2115 74.8562C74.2116 76.0207 73.3372 76.8941 72.1715 76.8941C71.0057 76.8941 70.1314 76.0208 70.1314 74.8563C70.1314 73.6917 71.0057 72.8183 72.1714 72.8183C73.24 72.8183 74.2115 73.6917 74.2115 74.8562Z" fill="#FFCF2D"/>
<path d="M91.6007 74.8562C91.6007 76.0207 90.7264 76.8941 89.5607 76.8941C88.3949 76.8941 87.5206 76.0208 87.5205 74.8563C87.5205 73.6917 88.3948 72.8183 89.5606 72.8183C90.7263 72.8183 91.6007 73.6917 91.6007 74.8562Z" fill="#FFCF2D"/>
<path d="M108.893 74.8562C108.893 76.0207 108.019 76.8941 106.853 76.8941C105.687 76.8941 104.813 76.0208 104.813 74.8563C104.813 73.6917 105.687 72.8183 106.853 72.8183C108.019 72.8183 108.893 73.6917 108.893 74.8562Z" fill="#FFCF2D"/>
<path d="M124.242 76.8922C125.369 76.8921 126.282 75.9797 126.282 74.8542C126.282 73.7287 125.369 72.8164 124.242 72.8164C123.115 72.8164 122.202 73.7288 122.202 74.8543C122.202 75.9798 123.115 76.8922 124.242 76.8922Z" fill="#FFCF2D"/>
<path d="M143.671 74.8542C143.672 76.0187 142.797 76.8921 141.631 76.8922C140.466 76.8922 139.591 76.0188 139.591 74.8543C139.591 73.6898 140.466 72.8164 141.631 72.8164C142.7 72.8164 143.671 73.6897 143.671 74.8542Z" fill="#FFCF2D"/>
<path d="M4.75183 89.3171C4.75185 90.4816 3.87754 91.355 2.71178 91.3551C1.54602 91.3551 0.671682 90.4817 0.671663 89.3172C0.671645 88.1527 1.54595 87.2793 2.71171 87.2793C3.87747 87.2792 4.75181 88.1526 4.75183 89.3171Z" fill="#FFCF2D"/>
<path d="M22.141 89.3171C22.141 90.4816 21.2667 91.355 20.1009 91.3551C18.9352 91.3551 18.0608 90.4817 18.0608 89.3172C18.0608 88.1527 18.9351 87.2793 20.1009 87.2793C21.1695 87.2792 22.141 88.1526 22.141 89.3171Z" fill="#FFCF2D"/>
<path d="M39.4332 89.3152C39.4332 90.4797 38.5589 91.3531 37.3932 91.3531C36.2274 91.3531 35.3531 90.4798 35.3531 89.3152C35.353 88.1507 36.2273 87.2773 37.3931 87.2773C38.5589 87.2773 39.4332 88.1507 39.4332 89.3152Z" fill="#FFCF2D"/>
<path d="M56.8224 89.3152C56.8224 90.4797 55.9481 91.3531 54.7823 91.3531C53.6166 91.3531 52.7422 90.4798 52.7422 89.3152C52.7422 88.1507 53.6165 87.2773 54.7823 87.2773C55.948 87.2773 56.8224 88.1507 56.8224 89.3152Z" fill="#FFCF2D"/>
<path d="M74.2118 89.3152C74.2118 90.4797 73.3375 91.3531 72.1717 91.3531C71.006 91.3531 70.1316 90.4798 70.1316 89.3152C70.1316 88.1507 71.0059 87.2773 72.1717 87.2773C73.2403 87.2773 74.2118 88.1507 74.2118 89.3152Z" fill="#FFCF2D"/>
<path d="M91.6009 89.3152C91.601 90.4797 90.7267 91.3531 89.5609 91.3531C88.3951 91.3531 87.5208 90.4798 87.5208 89.3152C87.5208 88.1507 88.3951 87.2773 89.5608 87.2773C90.7266 87.2773 91.6009 88.1507 91.6009 89.3152Z" fill="#FFCF2D"/>
<path d="M108.893 89.3152C108.893 90.4797 108.019 91.3531 106.853 91.3531C105.687 91.3531 104.813 90.4798 104.813 89.3152C104.813 88.1507 105.687 87.2773 106.853 87.2773C108.019 87.2773 108.893 88.1507 108.893 89.3152Z" fill="#FFCF2D"/>
<path d="M126.282 89.3152C126.282 90.4797 125.408 91.3531 124.242 91.3531C123.077 91.3531 122.202 90.4798 122.202 89.3152C122.202 88.1507 123.076 87.2773 124.242 87.2773C125.408 87.2773 126.282 88.1507 126.282 89.3152Z" fill="#FFCF2D"/>
<path d="M143.672 89.3152C143.672 90.4797 142.797 91.3531 141.632 91.3531C140.466 91.3531 139.592 90.4798 139.592 89.3152C139.592 88.1507 140.466 87.2773 141.632 87.2773C142.7 87.2773 143.672 88.1507 143.672 89.3152Z" fill="#FFCF2D"/>
<path d="M4.75207 103.678C4.75209 104.843 3.87778 105.716 2.71202 105.716C1.54626 105.716 0.671926 104.843 0.671908 103.679C0.671889 102.514 1.5462 101.641 2.71196 101.641C3.87772 101.641 4.75205 102.611 4.75207 103.678Z" fill="#FFCF2D"/>
<path d="M22.1412 103.678C22.1412 104.843 21.2669 105.716 20.1012 105.716C18.9354 105.716 18.0611 104.843 18.0611 103.679C18.061 102.514 18.9354 101.641 20.1011 101.641C21.1697 101.641 22.1412 102.611 22.1412 103.678Z" fill="#FFCF2D"/>
<path d="M39.4335 103.678C39.4335 104.843 38.5592 105.716 37.3934 105.716C36.2277 105.716 35.3533 104.843 35.3533 103.679C35.3533 102.514 36.2276 101.641 37.3934 101.641C38.5591 101.641 39.4334 102.611 39.4335 103.678Z" fill="#FFCF2D"/>
<path d="M56.8226 103.678C56.8226 104.843 55.9483 105.716 54.7826 105.716C53.6168 105.716 52.7425 104.843 52.7425 103.679C52.7424 102.514 53.6168 101.641 54.7825 101.641C55.9483 101.641 56.8226 102.611 56.8226 103.678Z" fill="#FFCF2D"/>
<path d="M74.212 103.678C74.212 104.843 73.3377 105.716 72.172 105.716C71.0062 105.716 70.1319 104.843 70.1319 103.679C70.1318 102.514 71.0062 101.641 72.1719 101.641C73.2405 101.641 74.212 102.611 74.212 103.678Z" fill="#FFCF2D"/>
<path d="M91.6012 103.678C91.6012 104.843 90.7269 105.716 89.5611 105.716C88.3954 105.716 87.521 104.843 87.521 103.679C87.521 102.514 88.3953 101.641 89.5611 101.641C90.7268 101.641 91.6012 102.611 91.6012 103.678Z" fill="#FFCF2D"/>
<path d="M108.893 103.677C108.893 104.841 108.019 105.714 106.853 105.714C105.688 105.714 104.813 104.841 104.813 103.677C104.813 102.512 105.688 101.639 106.853 101.639C108.019 101.639 108.893 102.609 108.893 103.677Z" fill="#FFCF2D"/>
<path d="M126.283 103.677C126.283 104.841 125.408 105.714 124.243 105.714C123.077 105.714 122.202 104.841 122.202 103.677C122.202 102.512 123.077 101.639 124.242 101.639C125.408 101.639 126.283 102.609 126.283 103.677Z" fill="#FFCF2D"/>
<path d="M143.672 103.677C143.672 104.841 142.798 105.714 141.632 105.714C140.466 105.714 139.592 104.841 139.592 103.677C139.592 102.512 140.466 101.639 141.632 101.639C142.7 101.639 143.672 102.609 143.672 103.677Z" fill="#FFCF2D"/>
</g>
<defs>
<clipPath id="clip0_2282_629">
<rect width="143" height="105" fill="white" transform="translate(0.670166 0.716797)"/>
</clipPath>
</defs>
</svg>
