<svg width="143" height="105" viewBox="0 0 143 105" fill="none" xmlns="http://www.w3.org/2000/svg">
<g clip-path="url(#clip0_2234_9754)">
<path d="M4.08016 32.1902C4.08016 33.3547 3.20584 34.2281 2.04008 34.2281C0.874321 34.2281 0 33.3547 0 32.1902C0 31.0257 0.874321 30.1523 2.04008 30.1523C3.20584 30.1523 4.08016 31.1228 4.08016 32.1902Z" fill="white"/>
<path d="M21.4693 32.1902C21.4693 33.3547 20.595 34.2281 19.4292 34.2281C18.2635 34.2281 17.3892 33.3547 17.3892 32.1902C17.3892 31.0257 18.2635 30.1523 19.4292 30.1523C20.4979 30.1523 21.4693 31.1228 21.4693 32.1902Z" fill="white"/>
<path d="M38.7618 32.1902C38.7618 33.3547 37.8875 34.2281 36.7217 34.2281C35.556 34.2281 34.6816 33.3547 34.6816 32.1902C34.6816 31.0257 35.556 30.1523 36.7217 30.1523C37.8875 30.1523 38.7618 31.1228 38.7618 32.1902Z" fill="white"/>
<path d="M56.151 32.1902C56.151 33.3547 55.2766 34.2281 54.1109 34.2281C52.9451 34.2281 52.0708 33.3547 52.0708 32.1902C52.0708 31.0257 52.9451 30.1523 54.1109 30.1523C55.2766 30.1523 56.151 31.1228 56.151 32.1902Z" fill="white"/>
<path d="M73.5401 32.1902C73.5401 33.3547 72.6658 34.2281 71.5 34.2281C70.3343 34.2281 69.46 33.3547 69.46 32.1902C69.46 31.0257 70.3343 30.1523 71.5 30.1523C72.5687 30.1523 73.5401 31.1228 73.5401 32.1902Z" fill="white"/>
<path d="M90.9293 32.1902C90.9293 33.3547 90.055 34.2281 88.8892 34.2281C87.7234 34.2281 86.8491 33.3547 86.8491 32.1902C86.8491 31.0257 87.7234 30.1523 88.8892 30.1523C90.055 30.1523 90.9293 31.1228 90.9293 32.1902Z" fill="white"/>
<path d="M108.222 32.1902C108.222 33.3547 107.347 34.2281 106.182 34.2281C105.016 34.2281 104.142 33.3547 104.142 32.1902C104.142 31.0257 105.016 30.1523 106.182 30.1523C107.347 30.1523 108.222 31.1228 108.222 32.1902Z" fill="white"/>
<path d="M125.611 32.1902C125.611 33.3547 124.737 34.2281 123.571 34.2281C122.405 34.2281 121.531 33.3547 121.531 32.1902C121.531 31.0257 122.405 30.1523 123.571 30.1523C124.737 30.1523 125.611 31.1228 125.611 32.1902Z" fill="white"/>
<path d="M143 32.1902C143 33.3547 142.126 34.2281 140.96 34.2281C139.794 34.2281 138.92 33.3547 138.92 32.1902C138.92 31.0257 139.794 30.1523 140.96 30.1523C142.029 30.1523 143 31.1228 143 32.1902Z" fill="white"/>
<path d="M4.08016 47.2664C4.08016 48.4309 3.20584 49.3043 2.04008 49.3043C0.874321 49.3043 0 48.4309 0 47.2664C0 46.1019 0.874321 45.2285 2.04008 45.2285C3.20584 45.2285 4.08016 46.1019 4.08016 47.2664Z" fill="white"/>
<path d="M21.4693 47.2664C21.4693 48.4309 20.595 49.3043 19.4292 49.3043C18.2635 49.3043 17.3892 48.4309 17.3892 47.2664C17.3892 46.1019 18.2635 45.2285 19.4292 45.2285C20.4979 45.2285 21.4693 46.1019 21.4693 47.2664Z" fill="white"/>
<path d="M38.7618 47.2664C38.7618 48.4309 37.8875 49.3043 36.7217 49.3043C35.556 49.3043 34.6816 48.4309 34.6816 47.2664C34.6816 46.1019 35.556 45.2285 36.7217 45.2285C37.8875 45.2285 38.7618 46.1019 38.7618 47.2664Z" fill="white"/>
<path d="M56.151 47.2664C56.151 48.4309 55.2766 49.3043 54.1109 49.3043C52.9451 49.3043 52.0708 48.4309 52.0708 47.2664C52.0708 46.1019 52.9451 45.2285 54.1109 45.2285C55.2766 45.2285 56.151 46.1019 56.151 47.2664Z" fill="white"/>
<path d="M73.5401 47.2664C73.5401 48.4309 72.6658 49.3043 71.5 49.3043C70.3343 49.3043 69.46 48.4309 69.46 47.2664C69.46 46.1019 70.3343 45.2285 71.5 45.2285C72.5687 45.2285 73.5401 46.1019 73.5401 47.2664Z" fill="white"/>
<path d="M90.9293 47.2664C90.9293 48.4309 90.055 49.3043 88.8892 49.3043C87.7234 49.3043 86.8491 48.4309 86.8491 47.2664C86.8491 46.1019 87.7234 45.2285 88.8892 45.2285C90.055 45.2285 90.9293 46.1019 90.9293 47.2664Z" fill="white"/>
<path d="M108.222 47.2664C108.222 48.4309 107.347 49.3043 106.182 49.3043C105.016 49.3043 104.142 48.4309 104.142 47.2664C104.142 46.1019 105.016 45.2285 106.182 45.2285C107.347 45.2285 108.222 46.1019 108.222 47.2664Z" fill="white"/>
<path d="M125.611 47.2664C125.611 48.4309 124.737 49.3043 123.571 49.3043C122.405 49.3043 121.531 48.4309 121.531 47.2664C121.531 46.1019 122.405 45.2285 123.571 45.2285C124.737 45.2285 125.611 46.1019 125.611 47.2664Z" fill="white"/>
<path d="M143 47.2664C143 48.4309 142.126 49.3043 140.96 49.3043C139.794 49.3043 138.92 48.4309 138.92 47.2664C138.92 46.1019 139.794 45.2285 140.96 45.2285C142.029 45.2285 143 46.1019 143 47.2664Z" fill="white"/>
<path d="M4.08016 2.03789C4.08016 3.2024 3.20584 4.07579 2.04008 4.07579C0.874321 4.07579 0 3.2024 0 2.03789C0 0.873382 0.874321 0 2.04008 0C3.20584 0 4.08016 0.873382 4.08016 2.03789Z" fill="white"/>
<path d="M21.4693 2.03789C21.4693 3.2024 20.595 4.07579 19.4292 4.07579C18.2635 4.07579 17.3892 3.2024 17.3892 2.03789C17.3892 0.873382 18.2635 0 19.4292 0C20.4979 0 21.4693 0.873382 21.4693 2.03789Z" fill="white"/>
<path d="M38.7618 2.03789C38.7618 3.2024 37.8875 4.07579 36.7217 4.07579C35.556 4.07579 34.6816 3.2024 34.6816 2.03789C34.6816 0.873382 35.6531 0 36.7217 0C37.8875 0 38.7618 0.873382 38.7618 2.03789Z" fill="white"/>
<path d="M56.151 2.03789C56.151 3.2024 55.2766 4.07579 54.1109 4.07579C52.9451 4.07579 52.0708 3.2024 52.0708 2.03789C52.0708 0.873382 53.0423 0 54.1109 0C55.1795 0 56.151 0.873382 56.151 2.03789Z" fill="white"/>
<path d="M73.5401 2.03789C73.5401 3.2024 72.6658 4.07579 71.5 4.07579C70.3343 4.07579 69.46 3.2024 69.46 2.03789C69.46 0.873382 70.3343 0 71.5 0C72.5687 0 73.5401 0.873382 73.5401 2.03789Z" fill="white"/>
<path d="M90.9293 2.03789C90.9293 3.2024 90.055 4.07579 88.8892 4.07579C87.7234 4.07579 86.8491 3.2024 86.8491 2.03789C86.8491 0.873382 87.7234 0 88.8892 0C90.055 0 90.9293 0.873382 90.9293 2.03789Z" fill="white"/>
<path d="M108.222 2.03789C108.222 3.2024 107.347 4.07579 106.182 4.07579C105.016 4.07579 104.142 3.2024 104.142 2.03789C104.142 0.873382 105.016 0 106.182 0C107.347 0 108.222 0.873382 108.222 2.03789Z" fill="white"/>
<path d="M125.611 2.03789C125.611 3.2024 124.737 4.07579 123.571 4.07579C122.405 4.07579 121.531 3.2024 121.531 2.03789C121.531 0.873382 122.405 0 123.571 0C124.737 0 125.611 0.873382 125.611 2.03789Z" fill="white"/>
<path d="M143 2.03789C143 3.2024 142.126 4.07579 140.96 4.07579C139.794 4.07579 138.92 3.2024 138.92 2.03789C138.92 0.873382 139.794 0 140.96 0C142.029 0 143 0.873382 143 2.03789Z" fill="white"/>
<path d="M4.08016 17.1141C4.08016 18.2786 3.20584 19.152 2.04008 19.152C0.874321 19.152 0 18.1815 0 17.1141C0 15.9496 0.874321 15.0762 2.04008 15.0762C3.20584 15.0762 4.08016 15.9496 4.08016 17.1141Z" fill="white"/>
<path d="M21.4693 17.1141C21.4693 18.2786 20.595 19.152 19.4292 19.152C18.2635 19.152 17.3892 18.2786 17.3892 17.1141C17.3892 15.9496 18.2635 15.0762 19.4292 15.0762C20.4979 15.0762 21.4693 15.9496 21.4693 17.1141Z" fill="white"/>
<path d="M38.7618 17.1141C38.7618 18.2786 37.8875 19.152 36.7217 19.152C35.556 19.152 34.6816 18.2786 34.6816 17.1141C34.6816 15.9496 35.556 15.0762 36.7217 15.0762C37.8875 15.0762 38.7618 15.9496 38.7618 17.1141Z" fill="white"/>
<path d="M56.151 17.1141C56.151 18.2786 55.2766 19.152 54.1109 19.152C52.9451 19.152 52.0708 18.2786 52.0708 17.1141C52.0708 15.9496 52.9451 15.0762 54.1109 15.0762C55.2766 15.0762 56.151 15.9496 56.151 17.1141Z" fill="white"/>
<path d="M73.5401 17.1141C73.5401 18.2786 72.6658 19.152 71.5 19.152C70.3343 19.152 69.46 18.2786 69.46 17.1141C69.46 15.9496 70.3343 15.0762 71.5 15.0762C72.5687 15.0762 73.5401 15.9496 73.5401 17.1141Z" fill="white"/>
<path d="M90.9293 17.1141C90.9293 18.2786 90.055 19.152 88.8892 19.152C87.7234 19.152 86.8491 18.2786 86.8491 17.1141C86.8491 15.9496 87.7234 15.0762 88.8892 15.0762C90.055 15.0762 90.9293 15.9496 90.9293 17.1141Z" fill="white"/>
<path d="M108.222 17.1141C108.222 18.2786 107.347 19.152 106.182 19.152C105.016 19.152 104.142 18.2786 104.142 17.1141C104.142 15.9496 105.016 15.0762 106.182 15.0762C107.347 15.0762 108.222 15.9496 108.222 17.1141Z" fill="white"/>
<path d="M125.611 17.1141C125.611 18.2786 124.737 19.152 123.571 19.152C122.405 19.152 121.531 18.2786 121.531 17.1141C121.531 15.9496 122.405 15.0762 123.571 15.0762C124.737 15.0762 125.611 15.9496 125.611 17.1141Z" fill="white"/>
<path d="M143 17.1141C143 18.2786 142.126 19.152 140.96 19.152C139.794 19.152 138.92 18.2786 138.92 17.1141C138.92 15.9496 139.794 15.0762 140.96 15.0762C142.029 15.0762 143 15.9496 143 17.1141Z" fill="white"/>
<path d="M4.08016 62.3426C4.08016 63.5071 3.20584 64.3805 2.04008 64.3805C0.874321 64.3805 0 63.5071 0 62.3426C0 61.1781 0.874321 60.3047 2.04008 60.3047C3.20584 60.3047 4.08016 61.2751 4.08016 62.3426Z" fill="white"/>
<path d="M21.4693 62.3426C21.4693 63.5071 20.595 64.3805 19.4292 64.3805C18.2635 64.3805 17.3892 63.5071 17.3892 62.3426C17.3892 61.1781 18.2635 60.3047 19.4292 60.3047C20.4979 60.3047 21.4693 61.2751 21.4693 62.3426Z" fill="white"/>
<path d="M38.7618 62.3426C38.7618 63.5071 37.8875 64.3805 36.7217 64.3805C35.556 64.3805 34.6816 63.5071 34.6816 62.3426C34.6816 61.1781 35.556 60.3047 36.7217 60.3047C37.8875 60.3047 38.7618 61.2751 38.7618 62.3426Z" fill="white"/>
<path d="M56.151 62.3426C56.151 63.5071 55.2766 64.3805 54.1109 64.3805C52.9451 64.3805 52.0708 63.5071 52.0708 62.3426C52.0708 61.1781 52.9451 60.3047 54.1109 60.3047C55.2766 60.3047 56.151 61.2751 56.151 62.3426Z" fill="white"/>
<path d="M73.5401 62.3426C73.5401 63.5071 72.6658 64.3805 71.5 64.3805C70.3343 64.3805 69.46 63.5071 69.46 62.3426C69.46 61.1781 70.3343 60.3047 71.5 60.3047C72.5687 60.3047 73.5401 61.2751 73.5401 62.3426Z" fill="white"/>
<path d="M90.9293 62.3426C90.9293 63.5071 90.055 64.3805 88.8892 64.3805C87.7234 64.3805 86.8491 63.5071 86.8491 62.3426C86.8491 61.1781 87.7234 60.3047 88.8892 60.3047C90.055 60.3047 90.9293 61.2751 90.9293 62.3426Z" fill="white"/>
<path d="M108.222 62.3426C108.222 63.5071 107.347 64.3805 106.182 64.3805C105.016 64.3805 104.142 63.5071 104.142 62.3426C104.142 61.1781 105.016 60.3047 106.182 60.3047C107.347 60.3047 108.222 61.2751 108.222 62.3426Z" fill="white"/>
<path d="M125.611 62.3426C125.611 63.5071 124.737 64.3805 123.571 64.3805C122.405 64.3805 121.531 63.5071 121.531 62.3426C121.531 61.1781 122.405 60.3047 123.571 60.3047C124.737 60.3047 125.611 61.2751 125.611 62.3426Z" fill="white"/>
<path d="M143 62.3426C143 63.5071 142.126 64.3805 140.96 64.3805C139.794 64.3805 138.92 63.5071 138.92 62.3426C138.92 61.1781 139.794 60.3047 140.96 60.3047C142.029 60.3047 143 61.2751 143 62.3426Z" fill="white"/>
<path d="M4.08016 77.4188C4.08016 78.5833 3.20584 79.4566 2.04008 79.4566C0.874321 79.4566 0 78.5833 0 77.4188C0 76.2542 0.874321 75.3809 2.04008 75.3809C3.20584 75.3809 4.08016 76.2542 4.08016 77.4188Z" fill="white"/>
<path d="M21.4693 77.4188C21.4693 78.5833 20.595 79.4566 19.4292 79.4566C18.2635 79.4566 17.3892 78.5833 17.3892 77.4188C17.3892 76.2542 18.2635 75.3809 19.4292 75.3809C20.4979 75.3809 21.4693 76.2542 21.4693 77.4188Z" fill="white"/>
<path d="M38.7618 77.4188C38.7618 78.5833 37.8875 79.4566 36.7217 79.4566C35.556 79.4566 34.6816 78.5833 34.6816 77.4188C34.6816 76.2542 35.556 75.3809 36.7217 75.3809C37.8875 75.3809 38.7618 76.2542 38.7618 77.4188Z" fill="white"/>
<path d="M54.1109 79.4566C55.2376 79.4566 56.151 78.5442 56.151 77.4188C56.151 76.2933 55.2376 75.3809 54.1109 75.3809C52.9842 75.3809 52.0708 76.2933 52.0708 77.4188C52.0708 78.5442 52.9842 79.4566 54.1109 79.4566Z" fill="white"/>
<path d="M73.5401 77.4188C73.5401 78.5833 72.6658 79.4566 71.5 79.4566C70.3343 79.4566 69.46 78.5833 69.46 77.4188C69.46 76.2542 70.3343 75.3809 71.5 75.3809C72.5687 75.3809 73.5401 76.2542 73.5401 77.4188Z" fill="white"/>
<path d="M90.9293 77.4188C90.9293 78.5833 90.055 79.4566 88.8892 79.4566C87.7234 79.4566 86.8491 78.5833 86.8491 77.4188C86.8491 76.2542 87.7234 75.3809 88.8892 75.3809C90.055 75.3809 90.9293 76.2542 90.9293 77.4188Z" fill="white"/>
<path d="M108.222 77.4188C108.222 78.5833 107.347 79.4566 106.182 79.4566C105.016 79.4566 104.142 78.5833 104.142 77.4188C104.142 76.2542 105.016 75.3809 106.182 75.3809C107.347 75.3809 108.222 76.2542 108.222 77.4188Z" fill="white"/>
<path d="M123.571 79.4566C124.698 79.4566 125.611 78.5442 125.611 77.4188C125.611 76.2933 124.698 75.3809 123.571 75.3809C122.444 75.3809 121.531 76.2933 121.531 77.4188C121.531 78.5442 122.444 79.4566 123.571 79.4566Z" fill="white"/>
<path d="M143 77.4188C143 78.5833 142.126 79.4566 140.96 79.4566C139.794 79.4566 138.92 78.5833 138.92 77.4188C138.92 76.2542 139.794 75.3809 140.96 75.3809C142.029 75.3809 143 76.2542 143 77.4188Z" fill="white"/>
<path d="M4.08016 92.4949C4.08016 93.6594 3.20584 94.5328 2.04008 94.5328C0.874321 94.5328 0 93.6594 0 92.4949C0 91.3304 0.874321 90.457 2.04008 90.457C3.20584 90.457 4.08016 91.3304 4.08016 92.4949Z" fill="white"/>
<path d="M21.4693 92.4949C21.4693 93.6594 20.595 94.5328 19.4292 94.5328C18.2635 94.5328 17.3892 93.6594 17.3892 92.4949C17.3892 91.3304 18.2635 90.457 19.4292 90.457C20.4979 90.457 21.4693 91.3304 21.4693 92.4949Z" fill="white"/>
<path d="M38.7618 92.4949C38.7618 93.6594 37.8875 94.5328 36.7217 94.5328C35.556 94.5328 34.6816 93.6594 34.6816 92.4949C34.6816 91.3304 35.556 90.457 36.7217 90.457C37.8875 90.457 38.7618 91.3304 38.7618 92.4949Z" fill="white"/>
<path d="M56.151 92.4949C56.151 93.6594 55.2766 94.5328 54.1109 94.5328C52.9451 94.5328 52.0708 93.6594 52.0708 92.4949C52.0708 91.3304 52.9451 90.457 54.1109 90.457C55.2766 90.457 56.151 91.3304 56.151 92.4949Z" fill="white"/>
<path d="M73.5401 92.4949C73.5401 93.6594 72.6658 94.5328 71.5 94.5328C70.3343 94.5328 69.46 93.6594 69.46 92.4949C69.46 91.3304 70.3343 90.457 71.5 90.457C72.5687 90.457 73.5401 91.3304 73.5401 92.4949Z" fill="white"/>
<path d="M90.9293 92.4949C90.9293 93.6594 90.055 94.5328 88.8892 94.5328C87.7234 94.5328 86.8491 93.6594 86.8491 92.4949C86.8491 91.3304 87.7234 90.457 88.8892 90.457C90.055 90.457 90.9293 91.3304 90.9293 92.4949Z" fill="white"/>
<path d="M108.222 92.4949C108.222 93.6594 107.347 94.5328 106.182 94.5328C105.016 94.5328 104.142 93.6594 104.142 92.4949C104.142 91.3304 105.016 90.457 106.182 90.457C107.347 90.457 108.222 91.3304 108.222 92.4949Z" fill="white"/>
<path d="M125.611 92.4949C125.611 93.6594 124.737 94.5328 123.571 94.5328C122.405 94.5328 121.531 93.6594 121.531 92.4949C121.531 91.3304 122.405 90.457 123.571 90.457C124.737 90.457 125.611 91.3304 125.611 92.4949Z" fill="white"/>
<path d="M143 92.4949C143 93.6594 142.126 94.5328 140.96 94.5328C139.794 94.5328 138.92 93.6594 138.92 92.4949C138.92 91.3304 139.794 90.457 140.96 90.457C142.029 90.457 143 91.3304 143 92.4949Z" fill="white"/>
</g>
<defs>
<clipPath id="clip0_2234_9754">
<rect width="143" height="105" fill="white"/>
</clipPath>
</defs>
</svg>
