<svg width="135" height="183" viewBox="0 0 135 183" fill="none" xmlns="http://www.w3.org/2000/svg">
<g opacity="0.8" clip-path="url(#clip0_2234_9590)">
<path d="M40.0033 176.544C41.4755 176.552 42.5735 177.666 42.5655 179.143C42.5574 180.62 41.4473 181.721 39.9751 181.713C38.503 181.705 37.405 180.591 37.413 179.114C37.4211 177.637 38.6539 176.536 40.0033 176.544Z" fill="#FFCF2D"/>
<path d="M40.1234 154.511C41.5956 154.519 42.6936 155.633 42.6856 157.11C42.6775 158.587 41.5674 159.689 40.0953 159.681C38.6231 159.673 37.5251 158.559 37.5331 157.082C37.5405 155.728 38.774 154.504 40.1234 154.511Z" fill="#FFCF2D"/>
<path d="M40.2431 132.603C41.7152 132.611 42.8133 133.725 42.8052 135.202C42.7972 136.679 41.687 137.781 40.2149 137.773C38.7428 137.765 37.6447 136.651 37.6528 135.174C37.6608 133.697 38.8936 132.596 40.2431 132.603Z" fill="#FFCF2D"/>
<path d="M40.3632 110.571C41.8353 110.579 42.9334 111.693 42.9253 113.17C42.9173 114.647 41.8071 115.749 40.335 115.741C38.8629 115.733 37.7648 114.619 37.7729 113.142C37.7809 111.665 39.0137 110.564 40.3632 110.571Z" fill="#FFCF2D"/>
<path d="M40.4833 88.5388C41.9554 88.5468 43.0535 89.6606 43.0454 91.1376C43.0374 92.6147 41.9273 93.7164 40.4551 93.7084C38.983 93.7004 37.8849 92.5866 37.893 91.1096C37.9004 89.7556 39.1339 88.5315 40.4833 88.5388Z" fill="#FFCF2D"/>
<path d="M40.6034 66.5066C42.0756 66.5146 43.1736 67.6284 43.1656 69.1054C43.1575 70.5824 42.0474 71.6842 40.5752 71.6762C39.1031 71.6681 38.0051 70.5543 38.0131 69.0773C38.0212 67.6003 39.254 66.4992 40.6034 66.5066Z" fill="#FFCF2D"/>
<path d="M40.7226 44.5974C42.1947 44.6054 43.2928 45.7192 43.2847 47.1962C43.2766 48.6732 42.1665 49.775 40.6944 49.767C39.2223 49.7589 38.1242 48.6452 38.1323 47.1681C38.1403 45.6911 39.3731 44.59 40.7226 44.5974Z" fill="#FFCF2D"/>
<path d="M40.8427 22.5652C42.3148 22.5732 43.4129 23.687 43.4048 25.164C43.3968 26.641 42.2866 27.7428 40.8145 27.7347C39.3424 27.7267 38.2443 26.6129 38.2524 25.1359C38.2604 23.6589 39.4932 22.5578 40.8427 22.5652Z" fill="#FFCF2D"/>
<path d="M40.9628 0.532981C42.4349 0.541006 43.533 1.65477 43.5249 3.13179C43.5169 4.6088 42.4067 5.71055 40.9346 5.70252C39.4625 5.6945 38.3644 4.58071 38.3725 3.1037C38.3799 1.74977 39.6134 0.525624 40.9628 0.532981Z" fill="#FFCF2D"/>
<path d="M58.2821 176.643C59.7543 176.651 60.8523 177.765 60.8443 179.242C60.8362 180.719 59.7261 181.821 58.254 181.813C56.7818 181.805 55.6838 180.691 55.6918 179.214C55.6999 177.737 56.81 176.635 58.2821 176.643Z" fill="#FFCF2D"/>
<path d="M58.4023 154.611C59.8744 154.619 60.9724 155.733 60.9644 157.21C60.9563 158.687 59.8462 159.789 58.3741 159.781C56.9019 159.773 55.8039 158.659 55.8119 157.182C55.8193 155.828 56.9301 154.603 58.4023 154.611Z" fill="#FFCF2D"/>
<path d="M58.5219 132.703C59.994 132.711 61.0921 133.825 61.084 135.302C61.076 136.779 59.9658 137.88 58.4937 137.872C57.0216 137.864 55.9235 136.751 55.9316 135.274C55.9396 133.797 57.0498 132.695 58.5219 132.703Z" fill="#FFCF2D"/>
<path d="M58.642 110.671C60.1141 110.679 61.2122 111.792 61.2041 113.269C61.1961 114.746 60.086 115.848 58.6138 115.84C57.1417 115.832 56.0436 114.718 56.0517 113.241C56.0597 111.764 57.1699 110.663 58.642 110.671Z" fill="#FFCF2D"/>
<path d="M58.7621 88.6384C60.2343 88.6465 61.3323 89.7602 61.3243 91.2373C61.3162 92.7143 60.2061 93.816 58.7339 93.808C57.2618 93.8 56.1638 92.6862 56.1718 91.2092C56.1792 89.8552 57.29 88.6304 58.7621 88.6384Z" fill="#FFCF2D"/>
<path d="M58.8822 66.6062C60.3544 66.6142 61.4524 67.728 61.4444 69.205C61.4363 70.682 60.3262 71.7838 58.8541 71.7758C57.3819 71.7677 56.2839 70.654 56.2919 69.1769C56.3 67.6999 57.4101 66.5982 58.8822 66.6062Z" fill="#FFCF2D"/>
<path d="M59.0014 44.697C60.4735 44.7051 61.5716 45.8188 61.5635 47.2958C61.5555 48.7729 60.4453 49.8746 58.9732 49.8666C57.5011 49.8586 56.403 48.7448 56.4111 47.2678C56.4191 45.7907 57.5293 44.689 59.0014 44.697Z" fill="#FFCF2D"/>
<path d="M59.1215 22.6648C60.5936 22.6728 61.6917 23.7866 61.6836 25.2636C61.6756 26.7406 60.5654 27.8424 59.0933 27.8344C57.6212 27.8263 56.5231 26.7126 56.5312 25.2355C56.5392 23.7585 57.6494 22.6568 59.1215 22.6648Z" fill="#FFCF2D"/>
<path d="M59.2416 0.632575C60.7137 0.640601 61.8118 1.75437 61.8037 3.23139C61.7957 4.7084 60.6856 5.81016 59.2134 5.80213C57.7413 5.7941 56.6432 4.68032 56.6513 3.2033C56.6587 1.84937 57.7695 0.62455 59.2416 0.632575Z" fill="#FFCF2D"/>
<path d="M3.56827 176.345C5.0404 176.353 6.13845 177.467 6.1304 178.944C6.12235 180.421 5.01222 181.523 3.54009 181.515C2.06796 181.507 0.969906 180.393 0.977958 178.916C0.98601 177.439 2.09614 176.337 3.56827 176.345Z" fill="#FFCF2D"/>
<path d="M3.68839 154.313C5.16052 154.321 6.25857 155.435 6.25052 156.912C6.24247 158.389 5.13233 159.491 3.66021 159.483C2.18808 159.475 1.09002 158.361 1.09808 156.884C1.10546 155.53 2.21626 154.305 3.68839 154.313Z" fill="#FFCF2D"/>
<path d="M3.80802 132.404C5.28014 132.412 6.3782 133.526 6.37015 135.003C6.3621 136.48 5.25196 137.582 3.77984 137.574C2.30771 137.566 1.21032 136.329 1.2177 134.975C1.22576 133.498 2.33589 132.396 3.80802 132.404Z" fill="#FFCF2D"/>
<path d="M3.92813 110.372C5.40026 110.38 6.49832 111.494 6.49027 112.971C6.48221 114.448 5.37208 115.549 3.89995 115.541C2.42783 115.533 1.33044 114.296 1.33782 112.943C1.3452 111.589 2.45601 110.364 3.92813 110.372Z" fill="#FFCF2D"/>
<path d="M4.04825 88.3396C5.52038 88.3476 6.61844 89.4614 6.61038 90.9384C6.60233 92.4154 5.4922 93.5172 4.02007 93.5092C2.54794 93.5011 1.44989 92.3874 1.45794 90.9103C1.46532 89.5564 2.57612 88.3316 4.04825 88.3396Z" fill="#FFCF2D"/>
<path d="M4.16837 66.3074C5.6405 66.3154 6.73855 67.4292 6.7305 68.9062C6.72245 70.3832 5.61231 71.485 4.14019 71.4769C2.66806 71.4689 1.57 70.3551 1.57806 68.8781C1.58611 67.4011 2.69624 66.2993 4.16837 66.3074Z" fill="#FFCF2D"/>
<path d="M4.28751 44.3992C5.75964 44.4072 6.85769 45.521 6.84964 46.998C6.84159 48.475 5.73145 49.5768 4.25933 49.5687C2.7872 49.5607 1.68914 48.4469 1.6972 46.9699C1.70525 45.4929 2.81538 44.3912 4.28751 44.3992Z" fill="#FFCF2D"/>
<path d="M4.40763 22.366C5.87975 22.374 6.97781 23.4878 6.96976 24.9648C6.96171 26.4418 5.85157 27.5436 4.37944 27.5355C2.90732 27.5275 1.80926 26.4137 1.81731 24.9367C1.82537 23.4597 2.9355 22.3579 4.40763 22.366Z" fill="#FFCF2D"/>
<path d="M4.52774 0.333762C5.99987 0.341788 7.09793 1.45555 7.08988 2.93257C7.08182 4.40958 5.97169 5.51133 4.49956 5.5033C3.02743 5.49528 1.92938 4.38149 1.93743 2.90448C1.94481 1.55055 3.05562 0.325737 4.52774 0.333762Z" fill="#FFCF2D"/>
<path d="M21.8471 176.445C23.3192 176.453 24.4173 177.567 24.4092 179.044C24.4012 180.521 23.1683 181.622 21.8189 181.615C20.3468 181.607 19.2487 180.493 19.2568 179.016C19.2648 177.539 20.375 176.437 21.8471 176.445Z" fill="#FFCF2D"/>
<path d="M21.9672 154.413C23.4393 154.421 24.5374 155.535 24.5293 157.012C24.5213 158.489 23.4111 159.59 21.939 159.582C20.4669 159.574 19.3688 158.461 19.3769 156.984C19.3843 155.63 20.4951 154.405 21.9672 154.413Z" fill="#FFCF2D"/>
<path d="M22.0868 132.504C23.559 132.512 24.657 133.625 24.649 135.102C24.6409 136.58 23.5308 137.681 22.0586 137.673C20.5865 137.665 19.4885 136.551 19.4965 135.074C19.5046 133.597 20.6147 132.496 22.0868 132.504Z" fill="#FFCF2D"/>
<path d="M22.2069 110.471C23.6791 110.479 24.7771 111.593 24.7691 113.07C24.761 114.547 23.6509 115.649 22.1788 115.641C20.7066 115.633 19.6086 114.519 19.6166 113.042C19.6247 111.565 20.7348 110.463 22.2069 110.471Z" fill="#FFCF2D"/>
<path d="M22.3271 88.4392C23.7992 88.4472 24.8972 89.561 24.8892 91.038C24.8811 92.5151 23.771 93.6168 22.2989 93.6088C20.8268 93.6007 19.7287 92.487 19.7367 91.0099C19.7441 89.656 20.8549 88.4312 22.3271 88.4392Z" fill="#FFCF2D"/>
<path d="M22.4472 66.407C23.9193 66.415 25.0174 67.5288 25.0093 69.0058C25.0013 70.4828 23.8911 71.5846 22.419 71.5765C20.9469 71.5685 19.8488 70.4547 19.8569 68.9777C19.8649 67.5007 20.9751 66.399 22.4472 66.407Z" fill="#FFCF2D"/>
<path d="M22.5668 44.4988C24.0389 44.5068 25.137 45.6206 25.1289 47.0976C25.1209 48.5746 24.0108 49.6764 22.5386 49.6683C21.0665 49.6603 19.9684 48.5465 19.9765 47.0695C19.9845 45.5925 21.0947 44.4908 22.5668 44.4988Z" fill="#FFCF2D"/>
<path d="M22.6869 22.4665C24.1591 22.4746 25.2571 23.5884 25.2491 25.0654C25.241 26.5424 24.1309 27.6441 22.6587 27.6361C21.1866 27.6281 20.0886 26.5143 20.0966 25.0373C20.1047 23.5603 21.2148 22.4585 22.6869 22.4665Z" fill="#FFCF2D"/>
<path d="M22.807 0.433357C24.2792 0.441382 25.3772 1.55515 25.3692 3.03217C25.3611 4.50919 24.251 5.61094 22.7789 5.60291C21.3067 5.59489 20.2087 4.4811 20.2167 3.00408C20.2241 1.65015 21.3349 0.425331 22.807 0.433357Z" fill="#FFCF2D"/>
<path d="M76.4389 176.743C77.911 176.751 79.0091 177.865 79.001 179.342C78.993 180.819 77.8828 181.921 76.4107 181.912C74.9386 181.904 73.8405 180.791 73.8486 179.314C73.8566 177.837 75.0894 176.736 76.4389 176.743Z" fill="#FFCF2D"/>
<path d="M76.559 154.711C78.0311 154.719 79.1292 155.832 79.1211 157.31C79.1131 158.787 78.0029 159.888 76.5308 159.88C75.0587 159.872 73.9606 158.758 73.9687 157.281C73.9761 155.927 75.2095 154.703 76.559 154.711Z" fill="#FFCF2D"/>
<path d="M76.6781 132.802C78.1503 132.81 79.2483 133.923 79.2403 135.4C79.2322 136.877 78.1221 137.979 76.65 137.971C75.1778 137.963 74.0798 136.849 74.0878 135.372C74.0959 133.895 75.3287 132.794 76.6781 132.802Z" fill="#FFCF2D"/>
<path d="M76.7982 110.769C78.2704 110.777 79.3684 111.891 79.3604 113.368C79.3523 114.845 78.2422 115.947 76.7701 115.939C75.2979 115.931 74.1999 114.817 74.2079 113.34C74.216 111.863 75.4488 110.762 76.7982 110.769Z" fill="#FFCF2D"/>
<path d="M76.9184 88.7371C78.3905 88.7451 79.4886 89.8589 79.4805 91.3359C79.4724 92.8129 78.3623 93.9146 76.8902 93.9066C75.4181 93.8986 74.32 92.7848 74.3281 91.3078C74.3354 89.9539 75.5689 88.7297 76.9184 88.7371Z" fill="#FFCF2D"/>
<path d="M77.0385 66.7048C78.5106 66.7129 79.6087 67.8266 79.6006 69.3037C79.5926 70.7807 78.4824 71.8824 77.0103 71.8744C75.5382 71.8664 74.4401 70.7526 74.4482 69.2756C74.4562 67.7986 75.689 66.6975 77.0385 66.7048Z" fill="#FFCF2D"/>
<path d="M77.1581 44.7956C78.6302 44.8037 79.7283 45.9175 79.7202 47.3945C79.7122 48.8715 78.6021 49.9732 77.1299 49.9652C75.6578 49.9572 74.5597 48.8434 74.5678 47.3664C74.5759 45.8894 75.8087 44.7883 77.1581 44.7956Z" fill="#FFCF2D"/>
<path d="M77.2782 22.7634C78.7504 22.7714 79.8484 23.8852 79.8404 25.3623C79.8323 26.8393 78.7222 27.941 77.25 27.933C75.7779 27.925 74.6799 26.8112 74.6879 25.3342C74.696 23.8571 75.9288 22.7561 77.2782 22.7634Z" fill="#FFCF2D"/>
<path d="M77.3983 0.731208C78.8705 0.739233 79.9685 1.853 79.9605 3.33002C79.9524 4.80704 78.8423 5.90879 77.3702 5.90076C75.898 5.89274 74.8 4.77895 74.808 3.30193C74.8154 1.948 76.0489 0.723851 77.3983 0.731208Z" fill="#FFCF2D"/>
<path d="M94.7172 176.843C96.1893 176.851 97.2874 177.964 97.2793 179.441C97.2713 180.918 96.1611 182.02 94.689 182.012C93.2169 182.004 92.1188 180.89 92.1269 179.413C92.1349 177.936 93.2451 176.835 94.7172 176.843Z" fill="#FFCF2D"/>
<path d="M94.8373 154.81C96.3094 154.818 97.4075 155.932 97.3994 157.409C97.3914 158.886 96.2813 159.988 94.8091 159.98C93.337 159.972 92.2389 158.858 92.247 157.381C92.2544 156.027 93.3652 154.802 94.8373 154.81Z" fill="#FFCF2D"/>
<path d="M94.9569 132.901C96.4291 132.909 97.5271 134.023 97.5191 135.5C97.511 136.977 96.4009 138.079 94.9288 138.071C93.4566 138.063 92.3586 136.949 92.3666 135.472C92.3747 133.995 93.4848 132.893 94.9569 132.901Z" fill="#FFCF2D"/>
<path d="M97.6392 113.468C97.647 112.04 96.4999 110.877 95.0771 110.869C93.6542 110.861 92.4945 112.012 92.4867 113.44C92.479 114.867 93.6261 116.031 95.0489 116.038C96.4717 116.046 97.6314 114.895 97.6392 113.468Z" fill="#FFCF2D"/>
<path d="M95.1972 88.8367C96.6693 88.8447 97.7673 89.9585 97.7593 91.4355C97.7512 92.9125 96.6411 94.0143 95.169 94.0062C93.6969 93.9982 92.5988 92.8844 92.6069 91.4074C92.6142 90.0535 93.725 88.8286 95.1972 88.8367Z" fill="#FFCF2D"/>
<path d="M95.3173 66.8044C96.7894 66.8125 97.8875 67.9262 97.8794 69.4033C97.8714 70.8803 96.7612 71.982 95.2891 71.974C93.817 71.966 92.7189 70.8522 92.727 69.3752C92.735 67.8982 93.8452 66.7964 95.3173 66.8044Z" fill="#FFCF2D"/>
<path d="M95.4369 44.8953C96.909 44.9033 98.0071 46.0171 97.999 47.4941C97.991 48.9711 96.8809 50.0729 95.4087 50.0648C93.9366 50.0568 92.8386 48.943 92.8466 47.466C92.8547 45.989 93.9648 44.8872 95.4369 44.8953Z" fill="#FFCF2D"/>
<path d="M98.1192 25.4619C98.1269 24.0343 96.9798 22.8708 95.557 22.863C94.1342 22.8553 92.9745 24.0062 92.9667 25.4338C92.9589 26.8613 94.106 28.0248 95.5289 28.0326C96.9517 28.0404 98.1114 26.8894 98.1192 25.4619Z" fill="#FFCF2D"/>
<path d="M95.6772 0.830817C97.1493 0.838843 98.2473 1.95261 98.2393 3.42963C98.2312 4.90665 97.1211 6.0084 95.649 6.00037C94.1768 5.99235 93.0788 4.87856 93.0868 3.40154C93.0942 2.04761 94.205 0.822792 95.6772 0.830817Z" fill="#FFCF2D"/>
<path d="M112.997 176.942C114.469 176.95 115.567 178.064 115.559 179.541C115.551 181.018 114.44 182.12 112.968 182.112C111.496 182.104 110.398 180.99 110.406 179.513C110.414 178.036 111.524 176.934 112.997 176.942Z" fill="#FFCF2D"/>
<path d="M113.117 154.91C114.589 154.918 115.687 156.032 115.679 157.509C115.671 158.986 114.561 160.087 113.088 160.079C111.616 160.071 110.518 158.958 110.526 157.481C110.534 156.127 111.644 154.902 113.117 154.91Z" fill="#FFCF2D"/>
<path d="M113.236 133.001C114.708 133.009 115.806 134.123 115.798 135.6C115.79 137.077 114.68 138.178 113.208 138.17C111.735 138.162 110.637 137.048 110.645 135.571C110.653 134.094 111.764 132.993 113.236 133.001Z" fill="#FFCF2D"/>
<path d="M113.356 110.968C114.828 110.977 115.926 112.09 115.918 113.567C115.91 115.044 114.8 116.146 113.328 116.138C111.856 116.13 110.758 115.016 110.766 113.539C110.774 112.062 111.884 110.96 113.356 110.968Z" fill="#FFCF2D"/>
<path d="M113.476 88.9363C114.948 88.9443 116.046 90.0581 116.038 91.5351C116.03 93.0121 114.92 94.1139 113.448 94.1058C111.976 94.0978 110.878 92.984 110.886 91.507C110.893 90.1531 112.004 88.9283 113.476 88.9363Z" fill="#FFCF2D"/>
<path d="M113.596 66.9041C115.068 66.9121 116.166 68.0259 116.158 69.5029C116.15 70.9799 115.04 72.0816 113.568 72.0736C112.096 72.0656 110.998 70.9518 111.006 69.4748C111.014 67.9978 112.124 66.896 113.596 66.9041Z" fill="#FFCF2D"/>
<path d="M113.716 44.9949C115.188 45.0029 116.286 46.1167 116.278 47.5937C116.27 49.0707 115.16 50.1725 113.688 50.1644C112.215 50.1564 111.117 49.0426 111.125 47.5656C111.133 46.0886 112.244 44.9869 113.716 44.9949Z" fill="#FFCF2D"/>
<path d="M113.836 22.9626C115.308 22.9707 116.406 24.0845 116.398 25.5615C116.39 27.0385 115.28 28.1402 113.808 28.1322C112.336 28.1242 111.237 27.0104 111.246 25.5334C111.254 24.0564 112.364 22.9546 113.836 22.9626Z" fill="#FFCF2D"/>
<path d="M113.956 0.930427C115.428 0.938452 116.526 2.05222 116.518 3.52924C116.51 5.00626 115.4 6.10801 113.928 6.09998C112.456 6.09196 111.358 4.97817 111.366 3.50115C111.373 2.14722 112.484 0.922402 113.956 0.930427Z" fill="#FFCF2D"/>
<path d="M131.153 177.041C132.625 177.049 133.723 178.163 133.715 179.64C133.707 181.117 132.597 182.218 131.125 182.21C129.652 182.202 128.554 181.089 128.562 179.612C128.57 178.134 129.803 177.033 131.153 177.041Z" fill="#FFCF2D"/>
<path d="M131.273 155.009C132.745 155.017 133.843 156.13 133.835 157.607C133.827 159.084 132.717 160.186 131.245 160.178C129.773 160.17 128.674 159.056 128.683 157.579C128.69 156.225 129.923 155.001 131.273 155.009Z" fill="#FFCF2D"/>
<path d="M131.392 133.1C132.864 133.108 133.962 134.222 133.954 135.699C133.946 137.176 132.836 138.278 131.364 138.27C129.892 138.262 128.794 137.148 128.802 135.671C128.81 134.194 130.043 133.093 131.392 133.1Z" fill="#FFCF2D"/>
<path d="M131.512 111.067C132.984 111.075 134.082 112.189 134.074 113.666C134.066 115.143 132.956 116.245 131.484 116.237C130.012 116.229 128.914 115.115 128.922 113.638C128.93 112.161 130.163 111.06 131.512 111.067Z" fill="#FFCF2D"/>
<path d="M131.632 89.0349C133.104 89.0429 134.202 90.1567 134.194 91.6337C134.186 93.1108 133.076 94.2125 131.604 94.2045C130.132 94.1964 129.034 93.0827 129.042 91.6057C129.049 90.2517 130.283 89.0276 131.632 89.0349Z" fill="#FFCF2D"/>
<path d="M131.752 67.0027C133.224 67.0107 134.323 68.1245 134.314 69.6015C134.306 71.0785 133.196 72.1803 131.724 72.1722C130.252 72.1642 129.154 71.0504 129.162 69.5734C129.17 68.0964 130.403 66.9953 131.752 67.0027Z" fill="#FFCF2D"/>
<path d="M131.872 45.0945C133.344 45.1025 134.442 46.2163 134.434 47.6933C134.426 49.1703 133.316 50.2721 131.844 50.264C130.372 50.256 129.274 49.1422 129.282 47.6652C129.29 46.1882 130.523 45.0871 131.872 45.0945Z" fill="#FFCF2D"/>
<path d="M131.992 23.0622C133.464 23.0703 134.562 24.1841 134.554 25.6611C134.546 27.1381 133.436 28.2398 131.964 28.2318C130.492 28.2238 129.394 27.11 129.402 25.633C129.41 24.156 130.643 23.0549 131.992 23.0622Z" fill="#FFCF2D"/>
<path d="M132.112 1.03004C133.584 1.03806 134.682 2.15183 134.674 3.62885C134.666 5.10587 133.556 6.20762 132.084 6.19959C130.612 6.19157 129.514 5.07778 129.522 3.60076C129.529 2.24683 130.763 1.02268 132.112 1.03004Z" fill="#FFCF2D"/>
</g>
<defs>
<clipPath id="clip0_2234_9590">
<rect width="181.184" height="132.739" fill="white" transform="translate(0.963867 181.501) rotate(-89.6877)"/>
</clipPath>
</defs>
</svg>
