<svg width="135" height="139" viewBox="0 0 135 139" fill="none" xmlns="http://www.w3.org/2000/svg">
<g opacity="0.2">
<path d="M67.0458 -5.86135e-06C104.11 -2.62112e-06 134.092 31.0091 134.092 69.3425C134.092 107.581 104.11 138.685 67.0458 138.685C30.0739 138.685 -0.000192519 107.676 -0.000189168 69.3424C0.0917789 31.0091 30.0739 -9.09353e-06 67.0458 -5.86135e-06ZM67.0458 134.214C101.718 134.214 129.769 105.203 129.769 69.3425C129.769 33.4822 101.718 4.47064 67.0458 4.47063C32.3732 4.47063 4.32238 33.4822 4.32238 69.3424C4.32238 105.108 32.4652 134.214 67.0458 134.214Z" fill="white"/>
<path d="M67.0453 14.9336C96.0158 14.9336 119.56 39.2843 119.56 69.2471C119.56 99.2099 96.0158 123.561 67.0453 123.561C38.0748 123.561 14.5306 99.305 14.5306 69.3422C14.5306 39.2843 38.0748 14.9336 67.0453 14.9336ZM67.0453 115.285C91.6012 115.285 111.559 94.6441 111.559 69.2471C111.559 43.8501 91.6012 23.209 67.0453 23.209C42.4894 23.209 22.5319 43.85 22.5319 69.2471C22.5319 94.6441 42.4894 115.285 67.0453 115.285Z" fill="white"/>
</g>
</svg>
