<svg width="602" height="547" viewBox="0 0 602 547" fill="none" xmlns="http://www.w3.org/2000/svg">
<path d="M378.302 15.7998L420.208 55.9358L462.326 282.189H67.2539L378.302 15.7998Z" fill="#FFCF2D"/>
<path d="M420.568 55.6208L378.535 15.3588L385.565 8.10911C395.92 -2.5658 414.575 -1.34701 425.333 8.90763C436.09 19.1833 437.974 37.6962 427.62 48.3711L420.568 55.6208Z" fill="white"/>
<path d="M420.59 56.5033L377.646 15.3797L385.12 7.66775C390.16 2.45638 397.339 -0.254373 405.343 0.0188035C413.009 0.29198 420.462 3.35997 425.799 8.44525C431.135 13.5305 434.502 20.8223 435.052 28.4292C435.624 36.3513 433.147 43.58 428.107 48.7913L420.59 56.5033ZM379.424 15.3377L420.547 54.7172L427.154 47.9298C431.961 42.9916 434.29 36.0991 433.761 28.5342C433.231 21.2215 430.013 14.245 424.888 9.36985C419.764 4.4947 412.628 1.5528 405.28 1.30063C397.656 1.02746 390.817 3.61213 386.031 8.55032L379.424 15.3377Z" fill="#FFCF2D"/>
<path d="M427.599 49.0016C427.43 49.0016 427.281 48.9386 427.154 48.8335L385.1 8.57148C384.845 8.31932 384.845 7.94107 385.078 7.68891C385.332 7.43674 385.735 7.43674 385.968 7.66789L428.022 47.9299C428.277 48.1821 428.277 48.5603 428.044 48.8125C427.938 48.9386 427.768 49.0016 427.599 49.0016Z" fill="#FFCF2D"/>
<path d="M508.828 281.096C508.743 281.096 508.659 281.075 508.574 281.033C508.256 280.886 508.108 280.508 508.256 280.193L567.23 149.656L451.929 10.3781V10.3571C449.748 7.41518 446.551 5.52396 442.909 4.99862C439.266 4.47328 435.645 5.41889 432.723 7.64633L428.022 11.2186C427.747 11.4288 427.345 11.3867 427.133 11.0926C426.921 10.8194 426.963 10.4201 427.26 10.21L431.961 6.63768C435.158 4.22111 439.118 3.19145 443.099 3.75882C447.08 4.32618 450.574 6.38551 452.946 9.60059L568.713 149.467L568.543 149.824L509.4 280.718C509.294 280.949 509.061 281.096 508.828 281.096Z" fill="#3FB1B5"/>
<path d="M566.087 156.696C569.665 156.696 572.566 153.817 572.566 150.266C572.566 146.715 569.665 143.836 566.087 143.836C562.508 143.836 559.607 146.715 559.607 150.266C559.607 153.817 562.508 156.696 566.087 156.696Z" fill="white"/>
<path d="M566.087 157.327C562.169 157.327 558.972 154.154 558.972 150.267C558.972 146.379 562.169 143.206 566.087 143.206C570.004 143.206 573.202 146.379 573.202 150.267C573.202 154.154 570.004 157.327 566.087 157.327ZM566.087 144.467C562.868 144.467 560.242 147.073 560.242 150.267C560.242 153.461 562.868 156.066 566.087 156.066C569.305 156.066 571.931 153.461 571.931 150.267C571.931 147.073 569.305 144.467 566.087 144.467Z" fill="#FFCF2D"/>
<path d="M492.396 265.841H523.969C533.053 265.841 540.401 273.154 540.401 282.147V282.61H475.942V282.147C475.964 273.154 483.311 265.841 492.396 265.841Z" fill="white"/>
<path d="M541.036 283.24H475.307V282.147C475.328 272.817 482.994 265.21 492.396 265.21H523.969C533.371 265.21 541.036 272.817 541.036 282.147V283.24ZM476.578 281.979H539.766C539.681 273.405 532.629 266.471 523.969 266.471H492.396C483.756 266.471 476.684 273.405 476.578 281.979Z" fill="#FFCF2D"/>
<path d="M339.444 234.888H139.568C132.051 234.888 125.974 228.857 125.974 221.397V82.6655C125.974 75.2057 132.051 69.1748 139.568 69.1748H339.444C346.962 69.1748 353.039 75.2057 353.039 82.6655V221.376C353.06 228.836 346.962 234.888 339.444 234.888Z" fill="white"/>
<path d="M339.444 235.518H139.568C131.712 235.518 125.338 229.193 125.338 221.397V82.6651C125.338 74.869 131.712 68.5439 139.568 68.5439H339.444C347.301 68.5439 353.674 74.869 353.674 82.6651V221.376C353.696 225.137 352.213 228.688 349.524 231.357C346.835 234.047 343.256 235.518 339.444 235.518ZM139.568 69.8048C132.432 69.8048 126.609 75.5835 126.609 82.6651V221.397C126.609 228.478 132.432 234.257 139.568 234.257H339.444C342.917 234.257 346.178 232.912 348.635 230.475C351.07 228.037 352.425 224.801 352.404 221.376V82.6651C352.404 75.5835 346.581 69.8048 339.444 69.8048H139.568Z" fill="#3FB1B5"/>
<path d="M339.572 221.984H141.623C138.679 221.984 136.308 219.61 136.308 216.71V83.9883C136.308 81.0674 138.7 78.7139 141.623 78.7139H339.572C342.515 78.7139 344.887 81.0884 344.887 83.9883V216.689C344.908 219.61 342.515 221.984 339.572 221.984Z" fill="#66B0F0"/>
<path d="M339.572 222.615H141.623C138.34 222.615 135.672 219.968 135.672 216.711V83.9888C135.672 80.7317 138.34 78.084 141.623 78.084H339.572C342.854 78.084 345.522 80.7317 345.522 83.9888V216.69C345.543 218.266 344.929 219.758 343.807 220.871C342.663 221.985 341.181 222.615 339.572 222.615ZM141.623 79.3448C139.039 79.3448 136.943 81.4251 136.943 83.9888V216.711C136.943 219.274 139.039 221.355 141.623 221.355H339.572C340.821 221.355 342.007 220.871 342.896 219.989C343.786 219.106 344.252 217.95 344.252 216.711V83.9888C344.252 81.4251 342.155 79.3448 339.572 79.3448H141.623Z" fill="#66B0F0"/>
<path d="M148.716 91.7431H145.582C144.206 91.7431 143.083 90.6293 143.083 89.2634V86.1534C143.083 84.7875 144.206 83.6738 145.582 83.6738H148.716C150.093 83.6738 151.215 84.7875 151.215 86.1534V89.2634C151.194 90.6503 150.093 91.7431 148.716 91.7431ZM145.582 84.9346C144.905 84.9346 144.354 85.481 144.354 86.1534V89.2634C144.354 89.9359 144.905 90.4822 145.582 90.4822H148.716C149.394 90.4822 149.923 89.9359 149.944 89.2424V86.1534C149.944 85.481 149.394 84.9346 148.716 84.9346H145.582Z" fill="white"/>
<path d="M162.967 91.7431H159.833C158.457 91.7431 157.334 90.6293 157.334 89.2634V86.1534C157.334 84.7875 158.457 83.6738 159.833 83.6738H162.967C164.344 83.6738 165.466 84.7875 165.466 86.1534V89.2634C165.466 90.6293 164.344 91.7431 162.967 91.7431ZM159.833 84.9346C159.156 84.9346 158.605 85.481 158.605 86.1534V89.2634C158.605 89.9359 159.156 90.4822 159.833 90.4822H162.967C163.645 90.4822 164.195 89.9359 164.195 89.2634V86.1534C164.195 85.481 163.645 84.9346 162.967 84.9346H159.833Z" fill="white"/>
<path d="M177.219 91.7431H174.085C172.708 91.7431 171.586 90.6293 171.586 89.2634V86.1534C171.586 84.7875 172.708 83.6738 174.085 83.6738H177.219C178.595 83.6738 179.717 84.7875 179.717 86.1534V89.2634C179.717 90.6293 178.595 91.7431 177.219 91.7431ZM174.085 84.9346C173.407 84.9346 172.856 85.481 172.856 86.1534V89.2634C172.856 89.9359 173.407 90.4822 174.085 90.4822H177.219C177.917 90.4822 178.447 89.9569 178.447 89.2634V86.1534C178.447 85.481 177.896 84.9346 177.219 84.9346H174.085Z" fill="white"/>
<path d="M281.699 282.19H204.112L219.337 234.889H266.453L281.699 282.19Z" fill="white"/>
<path d="M282.567 282.82H203.243L218.871 234.258H266.918L282.567 282.82ZM204.98 281.559H280.83L265.986 235.519H219.802L204.98 281.559Z" fill="#3FB1B5"/>
<path d="M210.21 263.257L219.337 234.889H266.452L210.21 263.257Z" fill="#3FB1B5"/>
<path d="M328.052 122.865H290.338C286.463 122.865 283.308 119.734 283.308 115.888V91.7226C283.308 87.8771 286.463 84.7461 290.338 84.7461H328.052C331.927 84.7461 335.082 87.8771 335.082 91.7226V115.888C335.082 119.734 331.927 122.865 328.052 122.865ZM290.338 86.0069C287.162 86.0069 284.579 88.5706 284.579 91.7226V115.888C284.579 119.04 287.162 121.604 290.338 121.604H328.052C331.228 121.604 333.812 119.04 333.812 115.888V91.7226C333.812 88.5706 331.228 86.0069 328.052 86.0069H290.338Z" fill="white"/>
<path d="M323.499 94.6231H294.722C294.362 94.6231 294.086 94.3499 294.086 93.9927C294.086 93.6355 294.362 93.3623 294.722 93.3623H323.499C323.859 93.3623 324.134 93.6355 324.134 93.9927C324.134 94.3499 323.859 94.6231 323.499 94.6231Z" fill="white"/>
<path d="M323.499 101.137H294.722C294.362 101.137 294.086 100.864 294.086 100.506C294.086 100.149 294.362 99.876 294.722 99.876H323.499C323.859 99.876 324.134 100.149 324.134 100.506C324.134 100.864 323.859 101.137 323.499 101.137Z" fill="white"/>
<path d="M323.499 107.651H294.722C294.362 107.651 294.086 107.378 294.086 107.021C294.086 106.664 294.362 106.391 294.722 106.391H323.499C323.859 106.391 324.134 106.664 324.134 107.021C324.134 107.378 323.859 107.651 323.499 107.651Z" fill="white"/>
<path d="M323.499 114.165H294.722C294.362 114.165 294.086 113.892 294.086 113.535C294.086 113.177 294.362 112.904 294.722 112.904H323.499C323.859 112.904 324.134 113.177 324.134 113.535C324.134 113.892 323.859 114.165 323.499 114.165Z" fill="white"/>
<path d="M338.47 221.985H188.569L179.781 234.489C169.849 248.61 148.864 248.82 138.658 234.888L85.126 161.824C87.3706 164.597 97.6407 161.508 107.424 155.12C117.355 148.627 123.771 140.453 121.76 137.427L158.88 184.371L170.252 164.45C173.365 159.176 178.531 155.393 184.545 154.006L223.233 145.874H256.584L293.345 153.922C299.74 155.372 305.161 159.512 308.232 165.249L338.47 221.985Z" fill="white"/>
<path d="M159.071 245.836C150.707 245.836 143.083 241.99 138.149 235.245L84.6177 162.181L85.6341 161.424C87.434 163.631 96.9842 161.193 107.085 154.595C111.786 151.527 115.873 147.975 118.583 144.571C121.04 141.503 122.035 138.961 121.23 137.763L122.268 137.027L158.796 183.236L169.701 164.135C172.899 158.713 178.256 154.805 184.397 153.397L223.169 145.244H256.648L256.711 145.265L293.472 153.313C300.037 154.805 305.627 159.05 308.782 164.954L339.508 222.616H188.886L180.289 234.846C175.44 241.738 167.795 245.752 159.304 245.836C159.24 245.836 159.156 245.836 159.071 245.836ZM87.074 163.399L139.187 234.509C143.93 240.982 151.257 244.659 159.325 244.575C167.393 244.491 174.656 240.687 179.272 234.131L188.251 221.355H337.433L307.681 165.543C304.695 159.953 299.422 155.94 293.218 154.532L256.521 146.504H223.296L184.672 154.616C178.87 155.961 173.809 159.659 170.802 164.765L158.965 185.506L122.67 139.612C122.374 141.188 121.336 143.163 119.557 145.37C116.762 148.858 112.569 152.514 107.763 155.645C101.05 160.016 92.982 163.462 88.1752 163.462C87.794 163.462 87.4128 163.441 87.074 163.399Z" fill="#3FB1B5"/>
<path d="M297.327 221.754C297.094 221.754 296.882 221.628 296.755 221.418L286.104 200.551C285.955 200.236 286.061 199.858 286.379 199.711C286.696 199.564 287.078 199.669 287.226 199.984L297.877 220.851C298.025 221.166 297.919 221.544 297.602 221.691C297.517 221.733 297.432 221.754 297.327 221.754Z" fill="#3FB1B5"/>
<path d="M187.722 223.709C187.616 223.709 187.531 223.688 187.425 223.646C187.108 223.498 186.981 223.099 187.15 222.805L197.695 202.149C197.844 201.833 198.246 201.707 198.542 201.875C198.86 202.023 198.987 202.422 198.818 202.716L188.272 223.372C188.166 223.583 187.955 223.709 187.722 223.709Z" fill="#3FB1B5"/>
<path d="M168.6 197.442C168.409 197.442 168.219 197.358 168.092 197.19L143.93 166.531C143.719 166.258 143.761 165.859 144.036 165.649C144.311 165.438 144.714 165.48 144.926 165.754L169.087 196.412C169.299 196.686 169.256 197.085 168.981 197.295C168.875 197.4 168.727 197.442 168.6 197.442Z" fill="#3FB1B5"/>
<path d="M252.879 167.603L243.583 156.36C243.35 156.087 243.392 155.688 243.668 155.478C243.943 155.247 244.345 155.289 244.557 155.562L253.048 165.795L272.466 149.447C272.742 149.216 273.144 149.258 273.356 149.51C273.589 149.783 273.546 150.182 273.292 150.392L252.879 167.603Z" fill="#3FB1B5"/>
<path d="M228.739 168.002L206.356 150.413C206.081 150.203 206.038 149.804 206.25 149.531C206.462 149.258 206.864 149.216 207.139 149.426L228.506 166.216L236.743 155.772C236.955 155.499 237.357 155.457 237.632 155.667C237.908 155.877 237.95 156.276 237.738 156.549L228.739 168.002Z" fill="#3FB1B5"/>
<path d="M95.3114 173.17C93.2997 173.17 92.2409 172.561 91.7116 171.888C91.4998 171.615 91.5422 171.216 91.8174 171.006C92.0927 170.796 92.495 170.838 92.7068 171.111C93.5962 172.225 96.4972 172.162 100.457 170.985C104.671 169.724 109.753 167.244 114.369 164.197C119.092 161.087 123.2 157.494 125.931 154.048C128.409 150.938 129.404 148.374 128.599 147.155C128.409 146.861 128.494 146.483 128.79 146.273C129.086 146.084 129.468 146.168 129.679 146.462C130.823 148.206 129.849 151.169 126.948 154.825C124.131 158.356 119.917 162.054 115.089 165.227C110.304 168.379 105.243 170.859 100.838 172.183C98.4454 172.897 96.6455 173.17 95.3114 173.17Z" fill="#3FB1B5"/>
<path d="M122.48 152.767C120.807 152.767 119.452 151.422 119.452 149.762C119.452 148.102 120.807 146.757 122.48 146.757C124.153 146.757 125.508 148.102 125.508 149.762C125.508 151.422 124.153 152.767 122.48 152.767ZM122.48 148.018C121.506 148.018 120.722 148.795 120.722 149.762C120.722 150.728 121.506 151.506 122.48 151.506C123.454 151.506 124.237 150.728 124.237 149.762C124.237 148.795 123.454 148.018 122.48 148.018Z" fill="#3FB1B5"/>
<path d="M240.639 167.687C238.966 167.687 237.611 166.342 237.611 164.682C237.611 163.022 238.966 161.677 240.639 161.677C242.312 161.677 243.667 163.022 243.667 164.682C243.667 166.342 242.312 167.687 240.639 167.687ZM240.639 162.938C239.665 162.938 238.881 163.715 238.881 164.682C238.881 165.648 239.665 166.426 240.639 166.426C241.613 166.426 242.396 165.648 242.396 164.682C242.396 163.715 241.613 162.938 240.639 162.938Z" fill="#3FB1B5"/>
<path d="M240.639 186.809C238.966 186.809 237.611 185.464 237.611 183.804C237.611 182.144 238.966 180.799 240.639 180.799C242.312 180.799 243.667 182.144 243.667 183.804C243.667 185.464 242.312 186.809 240.639 186.809ZM240.639 182.06C239.665 182.06 238.881 182.837 238.881 183.804C238.881 184.77 239.665 185.548 240.639 185.548C241.613 185.548 242.396 184.77 242.396 183.804C242.396 182.837 241.613 182.06 240.639 182.06Z" fill="#3FB1B5"/>
<path d="M179.019 235.497L188.569 221.985V235.497H179.019Z" fill="#3FB1B5"/>
<path d="M107.191 154.489C97.4075 160.877 87.1373 163.966 84.8927 161.193C84.8504 161.151 84.8292 161.108 84.7868 161.045C84.321 160.352 84.3633 159.406 84.7868 158.251C86.2479 154.447 92.283 148.563 99.9485 143.562C106.047 139.57 112.061 136.796 116.233 135.934C118.647 135.451 120.446 135.598 121.315 136.523L121.526 136.775C123.517 139.801 117.122 147.996 107.191 154.489Z" fill="#FE5244"/>
<path d="M107.191 154.489C101.622 158.125 95.883 160.709 91.5632 161.718L72.2299 134.652C69.5406 130.87 70.43 125.638 74.2628 122.969L91.6691 110.823L81.8013 94.1592C80.3613 91.7426 81.1872 88.6116 83.6435 87.2037C84.4482 86.7414 85.3164 86.5312 86.1846 86.5312C87.8575 86.5312 89.5092 87.3508 90.4832 88.8638L121.336 136.481L121.548 136.817C123.517 139.801 117.122 147.996 107.191 154.489Z" fill="#E57281"/>
<path d="M97.1322 134.967C96.8569 134.967 96.5816 134.946 96.3063 134.883C95.2476 134.673 94.337 134.042 93.7653 133.16L83.5798 118.03C83.3893 117.736 83.4739 117.358 83.7492 117.148C84.0457 116.958 84.4269 117.042 84.6386 117.316L94.824 132.445C95.2264 133.055 95.8405 133.475 96.5604 133.622C97.2804 133.769 98.0216 133.622 98.6356 133.223L101.028 131.668C102.299 130.848 102.659 129.167 101.854 127.907L91.076 111.327C90.8854 111.033 90.9701 110.654 91.2665 110.465C91.563 110.276 91.9442 110.36 92.1348 110.654L102.913 127.234C104.099 129.083 103.548 131.542 101.706 132.719L99.3132 134.274C98.678 134.736 97.9157 134.967 97.1322 134.967Z" fill="#9A3B82"/>
<path d="M89.234 139.99C87.9211 139.99 86.6294 139.359 85.8459 138.204C85.6553 137.909 85.74 137.531 86.0365 137.321C86.3329 137.132 86.7141 137.216 86.9258 137.51C87.7517 138.75 89.4457 139.107 90.7163 138.309L92.8974 136.943C93.5115 136.544 93.9561 135.934 94.1044 135.199C94.2526 134.463 94.1256 133.728 93.7232 133.118C93.5326 132.824 93.6173 132.446 93.9138 132.236C94.2102 132.047 94.5914 132.131 94.8032 132.425C95.3961 133.328 95.6078 134.4 95.3749 135.472C95.142 136.523 94.5067 137.426 93.5961 138.014L91.4151 139.38C90.7375 139.78 89.9751 139.99 89.234 139.99Z" fill="#9A3B82"/>
<path d="M81.4839 144.697C80.2133 144.697 78.964 144.108 78.1805 142.995L72.3996 134.905C72.1878 134.61 72.2725 134.232 72.5478 134.022C72.8231 133.812 73.2254 133.896 73.4372 134.169L79.2181 142.259C80.0863 143.457 81.7168 143.772 82.945 142.995L82.9873 142.974L84.999 141.86C85.6343 141.461 86.0578 140.851 86.2272 140.137C86.3966 139.401 86.2484 138.666 85.846 138.036L75.8723 123.326C75.6818 123.032 75.7453 122.654 76.0418 122.443C76.3382 122.254 76.7194 122.317 76.9311 122.612L86.9048 137.321C87.5189 138.246 87.7095 139.338 87.4766 140.389C87.2436 141.44 86.6084 142.343 85.6766 142.911L85.6554 142.932L83.6438 144.045C82.945 144.508 82.2038 144.697 81.4839 144.697Z" fill="#9A3B82"/>
<path d="M114.136 125.386L109.075 117.59C107.402 115.005 103.908 114.29 101.346 116.014L88.7891 124.461C88.7891 124.461 92.4313 130.954 101.283 125.806L104.247 130.492C98.191 134.295 96.4546 142.302 100.393 148.248L114.136 125.386Z" fill="#E57281"/>
<path d="M100.393 148.878C100.181 148.878 99.9908 148.773 99.8637 148.584C97.8732 145.558 97.1745 141.943 97.9579 138.413C98.6779 135.093 100.605 132.235 103.379 130.302L101.071 126.646C98.0215 128.306 95.2475 128.789 92.7911 128.138C89.6783 127.297 88.2807 124.859 88.2172 124.775L87.9419 124.271L100.308 115.698C101.706 114.773 103.358 114.437 104.988 114.773C106.619 115.109 108.016 116.055 108.927 117.463L113.988 125.259C114.178 125.553 114.094 125.931 113.797 126.12C113.501 126.309 113.12 126.225 112.929 125.931L107.868 118.135C107.148 117.021 106.047 116.265 104.734 116.013C103.442 115.74 102.108 116.013 101.028 116.748L89.6571 124.628C90.1653 125.28 91.3088 126.456 93.1299 126.94C95.3745 127.549 98.0003 126.982 100.944 125.28L101.473 124.965L105.094 130.701L104.565 131.037C101.791 132.782 99.8637 135.513 99.1649 138.707C98.4662 141.901 99.0802 145.18 100.901 147.911C101.092 148.206 101.007 148.584 100.711 148.794C100.626 148.836 100.52 148.878 100.393 148.878Z" fill="#9A3B82"/>
<path d="M107.191 154.49C101.622 158.125 95.883 160.71 91.5632 161.718L86.7563 154.994C89.4456 151.506 94.2525 147.303 99.9487 143.584C106.047 139.591 112.061 136.817 116.233 135.956C118.647 135.472 120.447 135.619 121.315 136.544L121.527 136.796C121.548 136.838 121.569 136.859 121.59 136.901C121.611 136.922 121.611 136.943 121.632 136.985C121.654 137.027 121.675 137.048 121.696 137.09C123.136 140.305 116.804 148.186 107.191 154.49Z" fill="#9A3B82"/>
<path d="M256.563 127.382V145.853C256.563 151.211 249.067 155.54 239.856 155.54C230.623 155.54 223.148 151.211 223.148 145.853V127.382H256.563Z" fill="#E57281"/>
<path d="M228.039 152.703C225.011 150.959 223.126 148.522 223.126 145.853V127.382H256.563V132.509C256.563 137.826 253.302 142.596 248.347 144.592L228.039 152.703Z" fill="#9A3B82"/>
<path d="M265.88 126.289V126.604C265.88 129.798 263.275 132.383 260.057 132.383H256.224C254.932 137.552 250.231 141.398 244.598 141.398H235.112C229.5 141.398 224.778 137.573 223.508 132.383H219.675C216.456 132.383 213.852 129.798 213.852 126.604V126.289C213.852 123.095 216.456 120.51 219.675 120.51H223.148V115.95C223.148 111.075 226.769 107.041 231.491 106.368C232.528 108.091 235.662 112.21 242.057 111.979C245.064 111.874 247.86 111.306 250.168 110.634C252.942 109.835 255.716 111.516 256.414 114.143C256.52 114.732 256.584 115.32 256.584 115.929V120.489H260.057C263.254 120.489 265.88 123.095 265.88 126.289Z" fill="#E57281"/>
<path d="M259.231 120.49H256.562V115.425C256.562 114.984 256.499 114.543 256.393 114.143C255.694 111.517 252.92 109.836 250.146 110.634C247.838 111.307 245.064 111.874 242.036 111.979C235.641 112.21 232.507 108.091 231.469 106.368C226.747 107.041 223.126 111.075 223.126 115.951V120.511H219.802C219.802 120.511 215.99 106.831 218.849 102.964C221.665 99.1607 225.053 100.821 225.053 100.821C225.053 100.821 223.02 89.4314 234.37 89.6415C245.699 89.8517 260.438 102.901 261.518 105.297C263.212 108.974 259.231 120.49 259.231 120.49Z" fill="#9A3B82"/>
<path d="M257.855 127.886C257.558 127.886 257.325 127.654 257.325 127.36C257.325 124.839 259.4 122.779 261.941 122.779C262.238 122.779 262.471 123.01 262.471 123.305C262.471 123.599 262.238 123.83 261.941 123.83C259.972 123.83 258.384 125.406 258.384 127.36C258.384 127.654 258.151 127.886 257.855 127.886Z" fill="#9A3B82"/>
<path d="M221.898 127.886C221.602 127.886 221.369 127.654 221.369 127.36C221.369 125.406 219.78 123.83 217.811 123.83C217.515 123.83 217.282 123.599 217.282 123.305C217.282 123.01 217.515 122.779 217.811 122.779C220.352 122.779 222.427 124.839 222.427 127.36C222.427 127.654 222.194 127.886 221.898 127.886Z" fill="#9A3B82"/>
<path d="M251.226 116.475C251.121 116.475 251.015 116.433 250.909 116.37C250.803 116.286 248.071 114.374 244.577 115.824C244.302 115.929 244.006 115.803 243.878 115.53C243.773 115.257 243.9 114.962 244.175 114.836C248.241 113.176 251.396 115.404 251.523 115.509C251.756 115.677 251.819 116.013 251.629 116.244C251.544 116.391 251.396 116.475 251.226 116.475Z" fill="#9A3B82"/>
<path d="M228.272 116.476C228.103 116.476 227.955 116.392 227.849 116.266C227.679 116.035 227.722 115.698 227.955 115.53C228.082 115.425 231.258 113.198 235.303 114.858C235.578 114.963 235.705 115.278 235.599 115.551C235.493 115.825 235.175 115.951 234.9 115.846C231.385 114.396 228.611 116.371 228.569 116.392C228.484 116.434 228.378 116.476 228.272 116.476Z" fill="#9A3B82"/>
<path d="M241.189 134.169C240.363 134.169 239.41 134.001 238.33 133.602C238.055 133.497 237.907 133.203 238.013 132.93C238.119 132.656 238.415 132.509 238.69 132.614C243.137 134.253 244.598 131.354 244.662 131.227C244.789 130.975 245.107 130.849 245.361 130.975C245.615 131.101 245.742 131.417 245.615 131.669C245.594 131.711 244.387 134.169 241.189 134.169Z" fill="#9A3B82"/>
<path d="M239.686 130.218C239.199 130.218 238.67 130.218 238.225 130.176C237.928 130.155 237.717 129.903 237.738 129.609C237.759 129.315 238.013 129.104 238.31 129.125C239.559 129.21 241.486 129.125 241.507 129.125C241.804 129.104 242.036 129.336 242.058 129.63C242.079 129.924 241.846 130.155 241.549 130.176C241.507 130.176 240.639 130.218 239.686 130.218Z" fill="#9A3B82"/>
<path d="M247.817 124.713C248.402 124.713 248.876 123.923 248.876 122.948C248.876 121.973 248.402 121.183 247.817 121.183C247.232 121.183 246.758 121.973 246.758 122.948C246.758 123.923 247.232 124.713 247.817 124.713Z" fill="#9A3B82"/>
<path d="M232.634 124.713C233.219 124.713 233.693 123.923 233.693 122.948C233.693 121.973 233.219 121.183 232.634 121.183C232.049 121.183 231.575 121.973 231.575 122.948C231.575 123.923 232.049 124.713 232.634 124.713Z" fill="#9A3B82"/>
<path d="M235.154 129.42H228.484C226.917 129.42 225.625 128.138 225.625 126.583V119.964C225.625 118.409 226.917 117.127 228.484 117.127H235.154C236.721 117.127 238.013 118.409 238.013 119.964V126.583C238.034 127.319 237.737 128.033 237.208 128.558C236.657 129.126 235.937 129.42 235.154 129.42ZM228.484 118.178C227.488 118.178 226.684 118.976 226.684 119.964V126.583C226.684 127.571 227.488 128.369 228.484 128.369H235.154C235.641 128.369 236.107 128.18 236.446 127.823C236.785 127.487 236.954 127.045 236.954 126.583V119.964C236.954 118.976 236.149 118.178 235.154 118.178H228.484Z" fill="white"/>
<path d="M251.48 129.42H244.81C243.243 129.42 241.951 128.138 241.951 126.583V119.964C241.951 118.409 243.243 117.127 244.81 117.127H251.48C253.047 117.127 254.339 118.409 254.339 119.964V126.583C254.339 128.138 253.047 129.42 251.48 129.42ZM244.81 118.178C243.815 118.178 243.01 118.976 243.01 119.964V126.583C243.01 127.571 243.815 128.369 244.81 128.369H251.48C252.475 128.369 253.28 127.571 253.28 126.583V119.964C253.28 118.976 252.475 118.178 251.48 118.178H244.81Z" fill="white"/>
<path d="M242.481 121.498H237.504V122.549H242.481V121.498Z" fill="white"/>
<path d="M253.239 214.462H230.094C227.637 214.462 225.647 212.487 225.647 210.049V197.841C225.647 195.403 227.637 193.428 230.094 193.428H253.239C255.695 193.428 257.686 195.403 257.686 197.841V210.049C257.686 212.487 255.695 214.462 253.239 214.462ZM230.094 194.689C228.336 194.689 226.918 196.096 226.918 197.841V210.049C226.918 211.794 228.336 213.201 230.094 213.201H253.239C254.996 213.201 256.415 211.794 256.415 210.049V197.841C256.415 196.096 254.996 194.689 253.239 194.689H230.094Z" fill="#66B0F0"/>
<path d="M242.248 208.915H234.413C233.164 208.915 232.147 207.906 232.147 206.667V201.224C232.147 199.984 233.164 198.976 234.413 198.976H242.248C243.498 198.976 244.514 199.984 244.514 201.224V206.667C244.514 207.906 243.498 208.915 242.248 208.915Z" fill="#66B0F0"/>
<path d="M249.872 208.768L247.458 207.171C246.801 206.73 246.399 205.973 246.399 205.154V202.758C246.399 201.939 246.801 201.182 247.458 200.741L249.872 199.144C250.443 198.766 251.185 199.186 251.185 199.9V208.033C251.206 208.726 250.443 209.146 249.872 208.768Z" fill="#66B0F0"/>
<path d="M562.783 283.24H0.635267C0.275282 283.24 0 282.967 0 282.61C0 282.253 0.275282 281.979 0.635267 281.979H562.783C563.143 281.979 563.418 282.253 563.418 282.61C563.418 282.967 563.143 283.24 562.783 283.24Z" fill="#3FB1B5"/>
<path d="M181.623 286.286V545.72H166.864V496.338C166.864 491.736 163.094 487.996 158.457 487.996H52.8121C48.1746 487.996 44.4054 491.736 44.4054 496.338V545.72H29.646V286.286H181.623Z" fill="white"/>
<path d="M182.258 546.351H166.228V496.339C166.228 492.094 162.734 488.627 158.457 488.627H52.8121C48.5346 488.627 45.0407 492.094 45.0407 496.339V546.351H29.0107V285.656H182.258V546.351ZM167.499 545.09H180.988V286.917H30.2813V545.09H43.7701V496.339C43.7701 491.4 47.8358 487.366 52.8121 487.366H158.457C163.433 487.366 167.499 491.4 167.499 496.339V545.09Z" fill="#3FB1B5"/>
<path d="M182.068 286.286V355.127L29.646 479.674L29.6672 286.286H182.068Z" fill="#D0F0E4"/>
<path d="M158.901 361.62H52.3883C47.645 361.62 43.791 357.796 43.791 353.089V306.039C43.791 301.332 47.645 297.508 52.3883 297.508H158.901C163.645 297.508 167.499 301.332 167.499 306.039V353.089C167.499 357.796 163.645 361.62 158.901 361.62ZM52.3883 298.769C48.3438 298.769 45.0615 302.026 45.0615 306.039V353.089C45.0615 357.102 48.3438 360.359 52.3883 360.359H158.901C162.946 360.359 166.228 357.102 166.228 353.089V306.039C166.228 302.026 162.946 298.769 158.901 298.769H52.3883Z" fill="#3FB1B5"/>
<path d="M132.728 396.629H80.2978L78.1167 381.73H130.569L132.728 396.629Z" fill="#FFCF2D"/>
<path d="M160.702 373.136C154.158 373.136 148.864 378.389 148.864 384.882V396.629H104.248V384.882C104.248 378.389 109.541 373.136 116.085 373.136H160.702Z" fill="white"/>
<path d="M149.5 397.26H103.612V384.883C103.612 378.053 109.203 372.506 116.085 372.506H160.702V373.767C154.518 373.767 149.5 378.747 149.5 384.883V397.26ZM104.883 395.999H148.229V384.883C148.229 380.008 151.088 375.784 155.217 373.767H116.085C109.901 373.767 104.883 378.747 104.883 384.883V395.999Z" fill="#3FB1B5"/>
<path d="M171.819 381.73H127.202C125.826 376.771 121.231 373.136 115.789 373.136H160.405C165.848 373.136 170.422 376.771 171.819 381.73Z" fill="white"/>
<path d="M172.666 382.361H126.737L126.61 381.899C125.276 377.108 120.829 373.767 115.81 373.767V372.506H160.427C165.996 372.506 170.951 376.225 172.455 381.563L172.666 382.361ZM127.668 381.1H170.951C169.363 376.751 165.128 373.767 160.406 373.767H121.273C124.259 375.217 126.631 377.843 127.668 381.1Z" fill="#3FB1B5"/>
<path d="M158.901 460.11H52.3883C47.645 460.11 43.791 456.286 43.791 451.579V404.53C43.791 399.822 47.645 395.998 52.3883 395.998H158.901C163.645 395.998 167.499 399.822 167.499 404.53V451.579C167.499 456.286 163.645 460.11 158.901 460.11ZM52.3883 397.259C48.3438 397.259 45.0615 400.516 45.0615 404.53V451.579C45.0615 455.593 48.3438 458.85 52.3883 458.85H158.901C162.946 458.85 166.228 455.593 166.228 451.579V404.53C166.228 400.516 162.946 397.259 158.901 397.259H52.3883Z" fill="#3FB1B5"/>
<path d="M127.477 329.259C127.117 329.259 126.842 328.986 126.842 328.629C126.842 325.225 124.068 322.472 120.637 322.472H90.6737C87.2433 322.472 84.4693 325.225 84.4693 328.629C84.4693 328.986 84.194 329.259 83.834 329.259C83.474 329.259 83.1987 328.986 83.1987 328.629C83.1987 324.531 86.5445 321.211 90.6737 321.211H120.637C124.766 321.211 128.112 324.531 128.112 328.629C128.112 328.986 127.837 329.259 127.477 329.259Z" fill="#3FB1B5"/>
<path d="M127.477 427.75C127.117 427.75 126.842 427.477 126.842 427.12C126.842 423.716 124.068 420.963 120.637 420.963H90.6737C87.2433 420.963 84.4693 423.716 84.4693 427.12C84.4693 427.477 84.194 427.75 83.834 427.75C83.474 427.75 83.1987 427.477 83.1987 427.12C83.1987 423.022 86.5445 419.702 90.6737 419.702H120.637C124.766 419.702 128.112 423.022 128.112 427.12C128.112 427.477 127.837 427.75 127.477 427.75Z" fill="#3FB1B5"/>
<path d="M540.4 286.286H524.667V546.287H540.4V286.286Z" fill="white"/>
<path d="M541.035 546.918H524.031V285.656H541.035V546.918ZM525.302 545.657H539.765V286.917H525.302V545.657Z" fill="#3FB1B5"/>
<path d="M601.365 546.919H273.017C272.657 546.919 272.381 546.646 272.381 546.289C272.381 545.931 272.657 545.658 273.017 545.658H601.365C601.725 545.658 602 545.931 602 546.289C602 546.646 601.725 546.919 601.365 546.919Z" fill="#3FB1B5"/>
<path d="M74.3267 246.949H64.8189C64.8189 246.949 51.2454 190.822 39.3235 188.994C27.4017 187.165 26.7876 208.767 26.7876 208.767C26.7876 208.767 26.9994 175.923 56.7934 180.42C86.6086 184.917 74.3267 246.949 74.3267 246.949Z" fill="white"/>
<path d="M74.8564 247.58H64.3322L64.2051 247.096C64.1628 246.949 60.7535 232.912 55.9467 218.854C47.9846 195.592 42.4578 190.107 39.2391 189.624C37.0369 189.288 35.0887 189.792 33.4794 191.137C27.8679 195.76 27.4444 208.662 27.4444 208.789L26.1738 208.768C26.1738 208.599 26.2162 204.754 27.4655 199.837C28.6302 195.277 31.0866 188.91 36.2322 184.539C41.4626 180.105 48.4082 178.508 56.9207 179.811C62.4264 180.63 66.8944 183.446 70.219 188.132C75.5552 195.676 77.9904 207.885 77.4187 224.465C76.9952 236.758 75.0047 246.97 74.9835 247.075L74.8564 247.58ZM65.3274 246.319H73.8188C74.2212 244.112 75.7882 235.035 76.1481 224.402C76.5293 213.201 75.6188 197.967 69.1814 188.868C66.0686 184.455 61.8758 181.828 56.7301 181.072C48.6199 179.853 41.992 181.345 37.058 185.526C35.5758 186.787 34.3052 188.237 33.2464 189.771C35.0464 188.51 37.1216 188.069 39.4509 188.426C44.6389 189.225 50.6104 199.353 57.1748 218.518C61.4735 231.105 64.671 243.713 65.3274 246.319Z" fill="#3FB1B5"/>
<path d="M70.1546 246.74C69.8158 246.74 69.5193 246.466 69.5193 246.109C68.8205 204.271 59.8844 189.498 52.5153 184.497C46.925 180.694 42.0334 182.417 41.9911 182.438C41.6523 182.564 41.2923 182.396 41.1652 182.06C41.0382 181.723 41.2076 181.366 41.5464 181.24C41.7793 181.156 47.0944 179.286 53.2353 183.447C57.9786 186.683 61.8538 192.609 64.7336 201.098C68.4394 212.025 70.4722 227.155 70.7898 246.088C70.7898 246.445 70.5146 246.74 70.1546 246.74Z" fill="#3FB1B5"/>
<path d="M100.224 246.108H55.5649V282.189H100.224V246.108Z" fill="#FE5244"/>
<path d="M109.626 264.159C106.788 265.378 103.4 265.231 100.245 263.865C97.9157 262.856 95.7135 261.196 93.9348 258.927C91.4784 255.775 89.8267 251.467 89.8267 246.108C89.8267 233.122 79.4083 224.969 75.1309 242.158C74.8344 243.356 74.5591 244.658 74.3262 246.108V246.066V245.982C74.3262 245.94 74.3262 245.877 74.3474 245.814V245.73C74.4321 244.658 74.7497 241.485 75.7238 237.661C76.4437 234.824 77.5237 231.672 79.133 228.751C79.9377 227.301 80.8694 225.914 81.9706 224.674C84.8081 221.438 88.7044 219.169 94.0194 219.169C103.803 219.169 110.96 230.6 113.692 241.99C116.084 251.887 115.11 261.785 109.626 264.159Z" fill="white"/>
<path d="M105.454 265.61C103.654 265.61 101.77 265.21 99.9911 264.433C97.4712 263.34 95.2055 261.575 93.4267 259.305C90.6527 255.754 89.1916 251.173 89.1916 246.109C89.1916 240.183 86.5658 233.501 82.6484 233.038C79.8108 232.702 77.3121 236.085 75.7451 242.305C75.4275 243.608 75.1734 244.869 74.9405 246.214L73.6699 246.109V245.983C73.6699 245.941 73.6699 245.836 73.6911 245.731V245.668C73.7758 244.491 74.1146 241.339 75.0887 237.493C75.9569 234.089 77.1215 231.042 78.5615 228.436C79.472 226.818 80.4249 225.432 81.4837 224.255C84.8083 220.451 89.0222 218.539 94.0196 218.539C104.184 218.539 111.532 230.244 114.306 241.843C115.534 246.949 115.873 251.972 115.238 255.985C114.539 260.503 112.675 263.508 109.88 264.727C108.525 265.315 107.021 265.61 105.454 265.61ZM82.2672 231.757C82.4578 231.757 82.6272 231.778 82.7966 231.799C87.0317 232.303 90.4621 238.733 90.4621 246.13C90.4621 250.921 91.8385 255.229 94.4431 258.57C96.0948 260.671 98.1912 262.31 100.499 263.319C103.527 264.622 106.767 264.727 109.372 263.613C114.115 261.554 115.619 252.749 113.078 242.179C111.659 236.233 109.139 230.748 106.005 226.734C102.469 222.216 98.3394 219.842 94.0196 219.842C89.4245 219.842 85.5282 221.628 82.4578 225.137C81.4625 226.272 80.552 227.554 79.705 229.109C78.6462 231.042 77.7356 233.207 76.9945 235.602C77.3545 235.014 77.7145 234.488 78.0956 234.026C79.5991 232.198 81.1237 231.757 82.2672 231.757Z" fill="#3FB1B5"/>
<path d="M107.36 265.189C107.043 265.189 106.767 264.958 106.725 264.622C103.633 235.812 96.5819 226.902 91.2245 224.507C86.4388 222.363 82.3943 225.158 82.3519 225.179C82.0766 225.389 81.6743 225.305 81.4625 225.032C81.2508 224.759 81.3355 224.36 81.6108 224.149C81.8013 224.023 86.2906 220.913 91.7327 223.351C95.3325 224.969 98.4665 228.625 101.029 234.257C104.247 241.297 106.577 251.467 107.974 264.475C108.017 264.811 107.763 265.126 107.403 265.168C107.403 265.189 107.381 265.189 107.36 265.189Z" fill="#3FB1B5"/>
<path d="M26.1518 208.768C26.1518 212.235 25.7495 225.495 38.4972 226.104C51.2449 226.713 52.5154 207.612 52.5154 207.612C52.5154 207.612 46.2474 190.717 39.323 188.994C27.6129 186.073 26.1518 208.768 26.1518 208.768Z" fill="#3FB1B5"/>
<path d="M89.8267 246.109H74.3262C77.9048 223.855 89.8267 232.219 89.8267 246.109Z" fill="#3FB1B5"/>
<path opacity="0.4" d="M353.06 82.6655V221.376C353.06 228.836 346.962 234.867 339.466 234.867H179.484C169.447 248.589 148.758 248.652 138.637 234.867L138.615 234.846C134.592 234.573 131.035 232.535 128.748 229.53L132.432 226.378L226.452 145.853L315.982 69.1748H339.466C346.962 69.1748 353.06 75.2267 353.06 82.6655Z" fill="white"/>
<path opacity="0.4" d="M109.626 264.79C106.81 266.051 103.4 265.862 100.245 264.496V282.189H67.2749L93.9561 259.347L100.266 253.947L105.073 249.828L114.369 241.99C117.08 253.464 115.576 262.079 109.626 264.79Z" fill="white"/>
<path d="M390.392 358.153V475.115H363.16L345.817 427.057L320.979 358.153H390.392Z" fill="#A0505A"/>
<path d="M320.979 358.153H390.392V395.705L329.237 381.037L320.979 358.153Z" fill="#73325A"/>
<path d="M391.027 475.745H362.716L344.653 425.69L346.135 426.489C346.177 426.51 349.693 428.38 356.85 429.305C363.457 430.166 374.637 430.355 390.244 426.426L391.027 426.237V475.745ZM363.605 474.484H389.757V427.855C374.299 431.658 363.203 431.427 356.575 430.566C351.768 429.935 348.591 428.905 346.919 428.233L363.605 474.484Z" fill="white"/>
<path d="M359.984 438.971C357.93 438.971 356.257 437.311 356.257 435.273C356.257 433.234 357.93 431.574 359.984 431.574C362.038 431.574 363.711 433.234 363.711 435.273C363.711 437.311 362.038 438.971 359.984 438.971ZM359.984 432.835C358.628 432.835 357.527 433.928 357.527 435.273C357.527 436.617 358.628 437.71 359.984 437.71C361.339 437.71 362.44 436.617 362.44 435.273C362.44 433.928 361.339 432.835 359.984 432.835Z" fill="white"/>
<path d="M374.723 448.868C372.669 448.868 370.996 447.208 370.996 445.17C370.996 443.132 372.669 441.472 374.723 441.472C376.777 441.472 378.449 443.132 378.449 445.17C378.449 447.208 376.777 448.868 374.723 448.868ZM374.723 442.732C373.367 442.732 372.266 443.825 372.266 445.17C372.266 446.515 373.367 447.608 374.723 447.608C376.078 447.608 377.179 446.515 377.179 445.17C377.179 443.825 376.078 442.732 374.723 442.732Z" fill="white"/>
<path d="M385.691 437.878C383.637 437.878 381.964 436.218 381.964 434.18C381.964 432.142 383.637 430.481 385.691 430.481C387.745 430.481 389.418 432.142 389.418 434.18C389.418 436.218 387.745 437.878 385.691 437.878ZM385.691 431.742C384.336 431.742 383.234 432.835 383.234 434.18C383.234 435.525 384.336 436.618 385.691 436.618C387.046 436.618 388.147 435.525 388.147 434.18C388.147 432.835 387.046 431.742 385.691 431.742Z" fill="white"/>
<path d="M381.35 460.384C379.296 460.384 377.623 458.724 377.623 456.686C377.623 454.647 379.296 452.987 381.35 452.987C383.404 452.987 385.077 454.647 385.077 456.686C385.077 458.724 383.404 460.384 381.35 460.384ZM381.35 454.248C379.995 454.248 378.894 455.341 378.894 456.686C378.894 458.031 379.995 459.123 381.35 459.123C382.705 459.123 383.806 458.031 383.806 456.686C383.806 455.341 382.705 454.248 381.35 454.248Z" fill="white"/>
<path d="M363.076 454.794C361.022 454.794 359.349 453.134 359.349 451.096C359.349 449.058 361.022 447.397 363.076 447.397C365.13 447.397 366.803 449.058 366.803 451.096C366.803 453.134 365.13 454.794 363.076 454.794ZM363.076 448.658C361.721 448.658 360.62 449.751 360.62 451.096C360.62 452.441 361.721 453.533 363.076 453.533C364.431 453.533 365.532 452.441 365.532 451.096C365.532 449.751 364.431 448.658 363.076 448.658Z" fill="white"/>
<path d="M368.116 471.605C366.062 471.605 364.389 469.945 364.389 467.906C364.389 465.868 366.062 464.208 368.116 464.208C370.17 464.208 371.842 465.868 371.842 467.906C371.842 469.945 370.17 471.605 368.116 471.605ZM368.116 465.469C366.76 465.469 365.659 466.562 365.659 467.906C365.659 469.251 366.76 470.344 368.116 470.344C369.471 470.344 370.572 469.251 370.572 467.906C370.572 466.562 369.471 465.469 368.116 465.469Z" fill="white"/>
<path d="M403.267 496.928L384.59 535.403C381.943 541.602 375.823 545.637 369.026 545.637H345.203C339.105 545.637 335.399 539.501 337.728 533.911L361.678 476.586C363.012 473.098 365.363 470.198 368.306 468.16C371.271 466.122 374.828 464.966 378.576 464.966C383.785 464.966 388.952 468.475 392.383 472.363L400.683 481.251C404.516 485.58 405.511 491.653 403.267 496.928Z" fill="#66B0F0"/>
<path d="M403.267 496.927L384.59 535.403C381.943 541.602 375.823 545.637 369.026 545.637H343.7C341.35 545.637 340.015 544.187 339.232 542.191H344.865C351.662 542.191 357.782 538.156 360.429 531.957L381.964 487.387C383.976 483.226 388.232 480.558 392.891 480.558C398.968 480.558 403.584 484.97 404.431 490.56C404.516 492.703 404.135 494.868 403.267 496.927Z" fill="white"/>
<path d="M369.026 546.268H343.7C341.349 546.268 339.634 544.965 338.639 542.422C338.554 542.233 338.596 542.002 338.702 541.834C338.829 541.666 339.02 541.561 339.232 541.561H344.864C351.408 541.561 357.295 537.694 359.836 531.705C359.836 531.705 359.836 531.684 359.857 531.684L381.392 487.114C383.51 482.744 388.02 479.928 392.891 479.928C399.01 479.928 404.135 484.362 405.067 490.477C405.067 490.498 405.067 490.519 405.067 490.54C405.151 492.809 404.749 495.058 403.86 497.18C403.86 497.18 403.86 497.201 403.838 497.201L385.162 535.656C382.409 542.107 376.077 546.268 369.026 546.268ZM340.227 542.821C341.032 544.313 342.154 545.007 343.7 545.007H369.026C375.569 545.007 381.456 541.14 383.997 535.151C383.997 535.151 383.997 535.13 384.018 535.13L402.695 496.676C403.5 494.742 403.881 492.704 403.796 490.624C402.949 485.16 398.375 481.189 392.891 481.189C388.507 481.189 384.442 483.731 382.536 487.661L361 532.21C358.247 538.661 351.916 542.821 344.864 542.821H340.227Z" fill="#66B0F0"/>
<path d="M398.968 479.402C396.723 478.183 394.013 477.301 391.641 477.301C387.089 477.301 382.875 479.928 380.905 484.004L358.607 530.15C355.77 536.811 349.206 541.119 341.9 541.119H337.792C337.58 540.72 337.432 540.3 337.284 539.858H341.9C348.697 539.858 354.796 535.845 357.443 529.646L357.464 529.625L379.783 483.458C381.964 478.94 386.623 476.04 391.663 476.04C393.272 476.04 395.199 476.565 396.851 477.133L398.968 479.402Z" fill="white"/>
<path d="M320.979 358.153L315.664 427.057L313.292 457.926C313.292 457.926 297.813 475.031 280.194 464.482L272.042 427.078L253.386 341.489C248.346 318.353 264.27 295.848 287.924 292.717L320.979 358.153Z" fill="#A0505A"/>
<path d="M292.116 469.378C288.326 469.378 284.154 468.432 279.877 465.868L279.644 465.721L271.216 426.174L272.232 426.489C292.285 432.457 315.282 426.531 315.515 426.468L316.383 426.237L313.927 459.039L313.779 459.207C313.609 459.375 309.755 463.599 303.636 466.583C300.565 468.054 296.584 469.378 292.116 469.378ZM280.766 464.923C287.796 469.042 295.292 469.21 303.043 465.448C308.294 462.885 311.936 459.27 312.677 458.493L314.964 427.876C313.037 428.317 308.04 429.389 301.581 429.977C294.149 430.671 283.244 430.839 272.868 427.981L280.766 464.923Z" fill="white"/>
<path d="M291.332 446.746C289.278 446.746 287.605 445.086 287.605 443.048C287.605 441.01 289.278 439.35 291.332 439.35C293.386 439.35 295.059 441.01 295.059 443.048C295.059 445.086 293.386 446.746 291.332 446.746ZM291.332 440.61C289.977 440.61 288.876 441.703 288.876 443.048C288.876 444.393 289.977 445.486 291.332 445.486C292.688 445.486 293.789 444.393 293.789 443.048C293.789 441.703 292.688 440.61 291.332 440.61Z" fill="white"/>
<path d="M310.983 442.039C308.929 442.039 307.256 440.379 307.256 438.341C307.256 436.303 308.929 434.643 310.983 434.643C313.037 434.643 314.71 436.303 314.71 438.341C314.71 440.379 313.037 442.039 310.983 442.039ZM310.983 435.903C309.628 435.903 308.527 436.996 308.527 438.341C308.527 439.686 309.628 440.779 310.983 440.779C312.339 440.779 313.44 439.686 313.44 438.341C313.44 436.996 312.339 435.903 310.983 435.903Z" fill="white"/>
<path d="M279.474 437.878C277.42 437.878 275.747 436.218 275.747 434.18C275.747 432.142 277.42 430.481 279.474 430.481C281.528 430.481 283.201 432.142 283.201 434.18C283.201 436.218 281.528 437.878 279.474 437.878ZM279.474 431.742C278.119 431.742 277.018 432.835 277.018 434.18C277.018 435.525 278.119 436.617 279.474 436.617C280.829 436.617 281.93 435.525 281.93 434.18C281.93 432.835 280.829 431.742 279.474 431.742Z" fill="white"/>
<path d="M288.241 463.451C286.187 463.451 284.514 461.791 284.514 459.753C284.514 457.715 286.187 456.055 288.241 456.055C290.295 456.055 291.968 457.715 291.968 459.753C291.968 461.791 290.295 463.451 288.241 463.451ZM288.241 457.315C286.886 457.315 285.785 458.408 285.785 459.753C285.785 461.098 286.886 462.191 288.241 462.191C289.596 462.191 290.697 461.098 290.697 459.753C290.697 458.408 289.596 457.315 288.241 457.315Z" fill="white"/>
<path d="M302.661 457.316C300.607 457.316 298.935 455.656 298.935 453.617C298.935 451.579 300.607 449.919 302.661 449.919C304.715 449.919 306.388 451.579 306.388 453.617C306.388 455.656 304.715 457.316 302.661 457.316ZM302.661 451.18C301.306 451.18 300.205 452.272 300.205 453.617C300.205 454.962 301.306 456.055 302.661 456.055C304.017 456.055 305.118 454.962 305.118 453.617C305.118 452.272 304.017 451.18 302.661 451.18Z" fill="white"/>
<path d="M333.705 465.28L313.292 546.287H306.855C306.558 546.287 306.283 546.266 305.986 546.245C301.116 545.804 297.008 541.728 295.97 536.915L280.173 464.44C297.791 475.009 313.292 457.904 313.292 457.904L333.705 465.28Z" fill="#66B0F0"/>
<path d="M334.743 506.845C339.041 484.319 340.227 467.109 332.816 465.722C325.404 464.335 312.212 479.276 307.913 501.802C303.615 524.329 305.859 544.25 313.271 545.637C320.682 547.045 330.444 529.393 334.743 506.845Z" fill="white"/>
<path d="M314.118 546.351C313.8 546.351 313.461 546.33 313.143 546.267C309.29 545.553 306.6 540.383 305.563 531.726C304.567 523.383 305.181 512.709 307.278 501.697C309.268 491.296 313.313 481.608 318.67 474.422C323.583 467.844 328.919 464.356 332.921 465.113C336.775 465.827 338.681 470.156 338.787 478.351C338.872 485.034 337.749 494.385 335.357 506.972C333.663 515.84 331.1 524.182 327.945 531.095C324.832 537.925 321.423 542.716 318.098 544.964C316.743 545.868 315.409 546.351 314.118 546.351ZM331.82 466.268C328.432 466.268 323.879 469.589 319.708 475.178C314.456 482.218 310.496 491.716 308.527 501.929C306.452 512.835 305.838 523.362 306.812 531.579C307.765 539.522 310.158 544.418 313.376 545.027C314.605 545.259 315.96 544.88 317.4 543.914C323.901 539.522 330.783 524.245 334.107 506.741C336.5 494.259 337.601 484.971 337.516 478.372C337.432 470.976 335.801 466.941 332.688 466.353C332.413 466.289 332.117 466.268 331.82 466.268Z" fill="#66B0F0"/>
<path d="M304.948 501.444C302.725 513.128 302.069 524.412 303.127 533.238C303.89 539.584 305.499 544.102 307.701 546.287H306.854C306.558 546.287 306.282 546.266 305.986 546.245C303.996 543.64 302.577 539.269 301.857 533.385C300.777 524.454 301.433 513.023 303.699 501.213C305.838 490.034 310.158 479.548 315.896 471.668C319.327 466.961 322.926 463.662 326.209 462.17L328.114 462.8C320.555 465.028 309.078 479.821 304.948 501.444Z" fill="white"/>
<path d="M287.924 292.696L384.527 282.819L481.088 309.696L480.262 322.43C478.949 342.519 461.5 358.153 441.214 358.153H321.001L287.924 292.696Z" fill="#FE5244"/>
<path d="M436.957 349.959H316.744C316.384 349.959 316.108 349.686 316.108 349.328C316.108 348.971 316.384 348.698 316.744 348.698H436.957C446.147 348.698 455.782 343.886 463.406 335.459C470.626 327.474 474.946 317.493 474.946 308.772C474.946 308.415 475.222 308.142 475.582 308.142C475.942 308.142 476.217 308.415 476.217 308.772C476.217 317.808 471.77 328.105 464.358 336.321C456.481 344.978 446.507 349.959 436.957 349.959Z" fill="white"/>
<path d="M427.492 339.452H311.874C311.514 339.452 311.238 339.178 311.238 338.821C311.238 338.464 311.514 338.191 311.874 338.191H427.492C435.518 338.191 443.818 334.45 450.828 327.642C457.413 321.254 462.029 313.016 463.491 305.031C463.554 304.695 463.893 304.464 464.232 304.527C464.571 304.59 464.803 304.926 464.74 305.262C461.754 321.422 445.724 339.452 427.492 339.452Z" fill="white"/>
<path d="M417.306 328.735H305.732C305.372 328.735 305.097 328.461 305.097 328.104C305.097 327.747 305.372 327.474 305.732 327.474H417.306C432.553 327.474 445.788 313.857 450.51 301.06C450.637 300.724 450.997 300.555 451.314 300.682C451.653 300.808 451.823 301.165 451.696 301.48C449.07 308.604 444.326 315.307 438.313 320.35C431.769 325.835 424.506 328.735 417.306 328.735Z" fill="white"/>
<path d="M411.801 317.177H300.227C299.867 317.177 299.592 316.904 299.592 316.547C299.592 316.189 299.867 315.916 300.227 315.916H411.801C422.304 315.916 433.315 309.129 440.557 298.223C440.748 297.929 441.15 297.844 441.447 298.034C441.743 298.223 441.828 298.622 441.637 298.916C434.141 310.179 422.728 317.177 411.801 317.177Z" fill="white"/>
<path d="M406.507 306.67H294.933C294.573 306.67 294.298 306.397 294.298 306.04C294.298 305.682 294.573 305.409 294.933 305.409H406.507C414.596 305.409 422.749 301.711 429.462 295.007C429.716 294.755 430.118 294.755 430.351 295.007C430.605 295.26 430.605 295.659 430.351 295.89C423.405 302.846 414.935 306.67 406.507 306.67Z" fill="white"/>
<path d="M400.79 295.953H289.216C288.856 295.953 288.581 295.68 288.581 295.323C288.581 294.966 288.856 294.692 289.216 294.692H400.79C405.554 294.692 410.34 293.348 415.041 290.721C415.337 290.553 415.74 290.658 415.909 290.952C416.079 291.246 415.973 291.645 415.676 291.814C410.785 294.566 405.766 295.953 400.79 295.953Z" fill="white"/>
<path d="M320.768 358.784C320.535 358.784 320.302 358.658 320.196 358.427L287.141 292.97C286.992 292.654 287.12 292.276 287.416 292.129C287.734 291.982 288.115 292.108 288.263 292.402L321.318 357.86C321.466 358.175 321.339 358.553 321.043 358.7C320.958 358.763 320.873 358.784 320.768 358.784Z" fill="white"/>
<path d="M486.381 221.986C477.276 224.55 468.318 223.793 467.365 221.04C466.476 218.414 470.499 213.917 478.652 210.933C479.054 210.786 479.478 210.639 479.901 210.492C482.358 209.672 484.814 209.147 487.122 208.874C493.962 208.012 499.531 209.231 500.23 211.29C501.183 214.043 496.016 219.275 486.381 221.986Z" fill="white"/>
<path d="M475.539 224.192C470.923 224.192 467.429 223.162 466.751 221.25C465.608 217.888 470.626 213.202 478.419 210.344C478.821 210.197 479.245 210.05 479.668 209.903H479.69C482.082 209.104 484.56 208.558 487.037 208.264C494.047 207.381 499.976 208.6 500.823 211.1C501.119 211.92 500.971 212.929 500.42 213.979C498.642 217.342 493.2 220.746 486.55 222.616C482.718 223.667 478.843 224.192 475.539 224.192ZM491.463 209.23C490.171 209.23 488.753 209.314 487.207 209.503C484.814 209.798 482.421 210.323 480.113 211.1C479.69 211.248 479.266 211.395 478.885 211.542C475.2 212.887 472.066 214.673 470.076 216.585C468.403 218.182 467.62 219.779 467.98 220.851C468.678 222.889 476.831 224.024 486.212 221.397C491.4 219.947 497.456 216.9 499.298 213.391C499.679 212.655 499.806 212.004 499.637 211.5C499.256 210.386 496.249 209.23 491.463 209.23Z" fill="#3FB1B5"/>
<path d="M480.621 283.261H477.127L467.958 221.838V221.796L467.725 220.262C468.17 217.467 472.574 213.517 480.346 210.953C484.221 209.671 488.075 209.104 491.357 209.041L494.703 218.14L495.02 219.001L505.608 247.811C511.961 265.021 499.107 283.261 480.621 283.261Z" fill="#A0505A"/>
<path d="M494.914 218.791C492.691 220.178 489.811 221.46 486.381 222.427C478.503 224.633 470.52 223.73 467.958 221.838V221.796L467.725 220.262C468.17 217.467 472.574 213.517 480.346 210.953C484.221 209.671 488.075 209.104 491.357 209.041L494.914 218.791Z" fill="#73325A"/>
<path d="M367.205 232.723L356.088 260.167C350.603 273.721 337.347 282.61 322.609 282.61H173.173V269.035C173.173 265.757 175.206 262.815 178.298 261.659L193.65 255.88C195.048 255.355 196.509 255.082 197.991 255.082H215.419L314.054 245.206L331.079 206.52L367.205 232.723Z" fill="#A0505A"/>
<path d="M173.809 274.772C173.449 274.772 173.173 274.499 173.173 274.142C173.173 271.389 174.846 268.972 177.451 267.985L189.034 263.635C189.351 263.509 189.733 263.677 189.86 263.992C189.987 264.307 189.817 264.686 189.5 264.812L177.917 269.161C175.82 269.96 174.444 271.914 174.444 274.142C174.444 274.499 174.169 274.772 173.809 274.772Z" fill="#73325A"/>
<path d="M173.809 281.706C173.449 281.706 173.173 281.432 173.173 281.075C173.173 278.322 174.846 275.906 177.451 274.918L189.034 270.568C189.351 270.442 189.733 270.61 189.86 270.926C189.987 271.241 189.817 271.619 189.5 271.745L177.917 276.095C175.82 276.894 174.444 278.848 174.444 281.075C174.444 281.432 174.169 281.706 173.809 281.706Z" fill="#73325A"/>
<path d="M177.683 282.61C177.429 282.61 177.175 282.442 177.091 282.19C176.963 281.854 177.133 281.497 177.472 281.392L189.055 277.252C189.394 277.126 189.754 277.294 189.859 277.63C189.986 277.966 189.817 278.324 189.478 278.429L177.895 282.568C177.832 282.589 177.747 282.61 177.683 282.61Z" fill="#73325A"/>
<path d="M188.06 258.213C188.06 258.213 198.901 230.749 202.374 231.211C205.847 231.673 192.761 256.448 192.761 256.448L188.06 258.213Z" fill="#FE5244"/>
<path d="M331.079 206.541L328.581 212.194L360.577 249.072L367.205 232.724L331.079 206.541Z" fill="#73325A"/>
<path d="M467.958 221.859L481.087 309.696L384.548 282.819L367.205 232.702L322.44 200.236L338.152 181.66C352.17 165.08 372.859 155.498 394.67 155.498H425.692C452.67 155.498 477.509 170.123 490.447 193.617L500.505 210.89C500.505 210.89 497.477 206.477 481.151 210.911C466.773 214.84 467.958 221.859 467.958 221.859Z" fill="#3FB1B5"/>
<path d="M367.205 232.933C367.163 232.933 367.099 232.933 367.057 232.912C366.718 232.828 366.506 232.491 366.591 232.155L371.61 210.553C371.694 210.217 372.033 210.007 372.372 210.091C372.711 210.175 372.922 210.511 372.838 210.847L367.819 232.449C367.756 232.744 367.502 232.933 367.205 232.933Z" fill="white"/>
<path d="M478.652 289.817C478.355 289.817 478.08 289.607 478.017 289.292L461.69 188.573C461.627 188.237 461.86 187.901 462.22 187.859C462.558 187.796 462.897 188.027 462.939 188.384L479.266 289.102C479.329 289.439 479.097 289.775 478.737 289.817C478.715 289.817 478.694 289.817 478.652 289.817Z" fill="white"/>
<path d="M480.876 310.325C480.812 310.325 480.77 310.325 480.706 310.304L384.357 283.029C384.019 282.924 383.828 282.587 383.913 282.251C384.018 281.915 384.357 281.726 384.696 281.81L481.045 309.086C481.384 309.191 481.574 309.527 481.49 309.863C481.405 310.136 481.151 310.325 480.876 310.325Z" fill="white"/>
<path d="M389.735 141.46V155.581L414.85 155.371V130.449L389.735 141.46Z" fill="#A0505A"/>
<path d="M416.883 126.1V126.478C416.883 130.26 414.003 133.328 410.191 133.328H408.709C407.756 137.069 399.286 141.44 393.272 141.44H386.263C378.597 141.44 372.732 134.61 373.981 127.087L374.32 125.049L372.245 123.893C371.059 123.221 370.72 121.687 371.546 120.594L376.035 114.71L377.009 108.911C377.793 104.141 380.948 100.253 385.14 98.3408C386.792 116.812 403.224 118.997 407.565 119.249H409.979C413.791 119.249 416.883 122.317 416.883 126.1Z" fill="#A0505A"/>
<path d="M405.766 128.537C405.406 128.537 405.13 128.264 405.13 127.907C405.13 124.587 407.862 121.876 411.208 121.876C411.568 121.876 411.843 122.149 411.843 122.506C411.843 122.864 411.568 123.137 411.208 123.137C408.561 123.137 406.401 125.28 406.401 127.907C406.401 128.264 406.126 128.537 405.766 128.537Z" fill="#73325A"/>
<path d="M382.811 119.439C383.408 119.439 383.891 118.329 383.891 116.959C383.891 115.59 383.408 114.479 382.811 114.479C382.215 114.479 381.731 115.59 381.731 116.959C381.731 118.329 382.215 119.439 382.811 119.439Z" fill="#73325A"/>
<path d="M387.216 113.828C387.025 113.828 386.834 113.744 386.707 113.576C383.891 109.709 381.265 109.919 381.223 109.919C380.863 109.961 380.566 109.709 380.524 109.352C380.482 109.016 380.736 108.701 381.096 108.659C381.223 108.638 384.484 108.385 387.724 112.819C387.936 113.092 387.872 113.492 387.576 113.702C387.47 113.786 387.343 113.828 387.216 113.828Z" fill="#73325A"/>
<path d="M407.566 119.25H409.98C413.791 119.25 416.883 122.318 416.883 126.1V126.478C416.883 130.261 414.003 133.329 410.191 133.329L408.561 134.463C401.7 138.834 392.213 156.023 394.543 168.19C397.168 181.87 409.175 184.917 420.271 182.816C431.367 180.714 439.456 174.305 436.83 160.604C436.534 158.986 436.047 157.368 435.433 155.771C435.623 155.834 435.793 155.897 435.983 155.96C449.324 159.575 464.994 159.995 469.314 149.656C473.633 139.318 472.659 129.084 459.679 123.747C452.14 120.637 441.891 120.658 433.95 122.801C437.953 108.995 430.838 93.6341 417.772 92.1001C397.253 89.6835 385.479 98.089 385.162 98.3201C385.141 100.758 386.813 118.052 407.566 119.25Z" fill="#73325A"/>
<path d="M435.983 156.611C435.687 156.611 435.411 156.401 435.369 156.107C433.124 144.444 423.511 138.014 423.405 137.951C423.235 137.846 423.129 137.636 423.129 137.426C423.129 137.216 423.235 137.027 423.405 136.901C429.969 132.299 432.807 125.658 433.908 122.128C434.014 121.792 434.374 121.603 434.691 121.708C435.03 121.813 435.221 122.17 435.115 122.485C434.014 126.058 431.219 132.614 424.845 137.405C427.238 139.191 434.628 145.453 436.618 155.855C436.682 156.191 436.449 156.527 436.11 156.59C436.068 156.611 436.025 156.611 435.983 156.611Z" fill="white"/>
<path d="M440.24 122.486H434.628C434.268 122.486 433.993 122.212 433.993 121.855V116.287C433.993 113.03 436.661 110.382 439.944 110.382H440.24C443.522 110.382 446.19 113.03 446.19 116.287V116.581C446.212 118.136 445.597 119.628 444.475 120.742C443.353 121.855 441.849 122.486 440.24 122.486ZM435.264 121.225H440.24C441.511 121.225 442.675 120.742 443.565 119.838C444.433 118.955 444.92 117.8 444.92 116.581V116.287C444.92 113.723 442.823 111.643 440.24 111.643H439.944C437.36 111.643 435.264 113.723 435.264 116.287V121.225Z" fill="#FE5244"/>
<path d="M443.374 131.017C441.108 131.017 438.927 129.924 437.635 127.907L434.035 122.233C433.845 121.939 433.929 121.54 434.226 121.372L439.943 117.799C441.468 116.854 443.289 116.539 445.047 116.938C446.804 117.337 448.308 118.388 449.282 119.901L449.621 120.426C450.595 121.939 450.891 123.746 450.489 125.49C450.087 127.234 449.028 128.726 447.503 129.693L446.974 130.029C445.873 130.681 444.623 131.017 443.374 131.017ZM435.454 122.086L438.715 127.234C440.325 129.756 443.734 130.513 446.317 128.916L446.847 128.579C448.096 127.802 448.943 126.604 449.261 125.175C449.578 123.746 449.324 122.296 448.541 121.056L448.202 120.531C447.418 119.291 446.211 118.451 444.771 118.136C443.331 117.82 441.87 118.073 440.621 118.85L435.454 122.086Z" fill="#FE5244"/>
<path d="M408.688 147.828C408.54 147.828 408.391 147.828 408.243 147.807C406.655 147.681 405.215 146.966 404.177 145.768L403.987 145.537C402.949 144.36 402.441 142.847 402.547 141.292C402.653 139.716 403.373 138.266 404.58 137.237L408.561 133.454C408.688 133.328 408.857 133.265 409.027 133.286C409.196 133.286 409.365 133.37 409.471 133.496L413.389 137.888C414.426 139.086 414.956 140.62 414.829 142.196C414.702 143.772 413.982 145.201 412.775 146.231L412.521 146.42C411.483 147.323 410.128 147.828 408.688 147.828ZM408.984 134.799L405.469 138.14L405.448 138.161C404.495 138.981 403.923 140.116 403.839 141.376C403.754 142.616 404.156 143.793 404.961 144.718C404.961 144.718 404.961 144.739 404.982 144.739L405.173 144.97C405.977 145.894 407.1 146.462 408.349 146.567C409.598 146.651 410.805 146.252 411.758 145.453L412.012 145.243C412.944 144.444 413.516 143.331 413.622 142.091C413.706 140.851 413.304 139.653 412.499 138.708L408.984 134.799Z" fill="#FE5244"/>
<path d="M416.798 145.517C413.834 145.517 411.102 143.562 410.255 140.599L408.455 134.148C408.37 133.812 408.561 133.476 408.9 133.371L415.401 131.584C417.137 131.101 418.958 131.332 420.525 132.194C422.092 133.076 423.236 134.505 423.723 136.228L423.892 136.838C424.379 138.561 424.146 140.368 423.278 141.923C422.389 143.478 420.949 144.613 419.212 145.096L418.598 145.264C417.984 145.453 417.391 145.517 416.798 145.517ZM411.483 140.263C412.309 143.142 415.337 144.865 418.238 144.067L418.852 143.898C420.271 143.499 421.436 142.596 422.156 141.335C422.876 140.074 423.045 138.603 422.664 137.195L422.494 136.586C422.092 135.178 421.182 134.022 419.911 133.308C418.641 132.593 417.158 132.425 415.739 132.803L409.853 134.421L411.483 140.263Z" fill="#FE5244"/>
<path d="M316.193 546.267C316.15 546.267 316.108 546.267 316.066 546.246C315.727 546.183 315.494 545.847 315.579 545.49L352.466 374.166C352.53 373.829 352.869 373.598 353.229 373.682C353.568 373.745 353.8 374.082 353.716 374.439L316.807 545.763C316.743 546.057 316.489 546.267 316.193 546.267Z" fill="#FFCF2D"/>
<path d="M484.369 546.267C484.073 546.267 483.818 546.057 483.755 545.762L446.867 374.439C446.804 374.102 447.015 373.766 447.354 373.682C447.693 373.619 448.032 373.829 448.117 374.165L485.004 545.489C485.068 545.825 484.856 546.162 484.517 546.246C484.454 546.267 484.411 546.267 484.369 546.267Z" fill="#FFCF2D"/>
<path d="M475.687 508.232H324.367C324.007 508.232 323.731 507.958 323.731 507.601C323.731 507.244 324.007 506.971 324.367 506.971H475.687C476.047 506.971 476.322 507.244 476.322 507.601C476.322 507.958 476.047 508.232 475.687 508.232Z" fill="#FFCF2D"/>
<path d="M476.512 374.313H324.027C322.1 374.313 320.533 372.758 320.533 370.846V361.621C320.533 359.708 322.1 358.153 324.027 358.153H476.512C478.439 358.153 480.006 359.708 480.006 361.621V370.846C480.006 372.758 478.439 374.313 476.512 374.313Z" fill="white"/>
<path d="M476.512 374.943H324.027C321.74 374.943 319.898 373.115 319.898 370.845V361.62C319.898 359.351 321.74 357.522 324.027 357.522H476.512C478.799 357.522 480.642 359.351 480.642 361.62V370.845C480.642 373.115 478.799 374.943 476.512 374.943ZM324.027 358.783C322.46 358.783 321.168 360.065 321.168 361.62V370.845C321.168 372.4 322.46 373.682 324.027 373.682H476.512C478.079 373.682 479.371 372.4 479.371 370.845V361.62C479.371 360.065 478.079 358.783 476.512 358.783H324.027Z" fill="#66B0F0"/>
</svg>
